<svg xmlns="http://www.w3.org/2000/svg" version="1.1" width="600px" height="600px" viewBox="0 0 200 200" style="overflow:hidden!important;"><defs id="SvgjsDefs11684"><linearGradient id="SvgjsLinearGradient13701" x1="79.1" y1="75.8" x2="79.1" y2="108.66" gradientUnits="userSpaceOnUse" class="svga-on-canvas-glasses-gradient-single-0-null"><stop id="SvgjsStop13702" stop-opacity="1" stop-color="#b4c0cf" offset="0" ></stop><stop id="SvgjsStop13703" stop-opacity="0.9374" stop-color="#abbace" offset="0.0626" ></stop><stop id="SvgjsStop13704" stop-opacity="0.679" stop-color="#8aa3ca" offset="0.321" ></stop><stop id="SvgjsStop13705" stop-opacity="0.4305" stop-color="#7393c6" offset="0.5695" ></stop><stop id="SvgjsStop13706" stop-opacity="0.1987" stop-color="#6589c5" offset="0.8013" ></stop><stop id="SvgjsStop13707" stop-opacity="0" stop-color="#6086c4" offset="1" ></stop></linearGradient><linearGradient id="SvgjsLinearGradient13709" x1="121.5" y1="75.8" x2="121.5" y2="108.66" gradientUnits="userSpaceOnUse" class="svga-on-canvas-glasses-gradient-single-1-null"><stop id="SvgjsStop13710" stop-opacity="1" stop-color="#b4c0cf" offset="0" ></stop><stop id="SvgjsStop13711" stop-opacity="0.9374" stop-color="#abbace" offset="0.0626" ></stop><stop id="SvgjsStop13712" stop-opacity="0.679" stop-color="#8aa3ca" offset="0.321" ></stop><stop id="SvgjsStop13713" stop-opacity="0.4305" stop-color="#7393c6" offset="0.5695" ></stop><stop id="SvgjsStop13714" stop-opacity="0.1987" stop-color="#6589c5" offset="0.8013" ></stop><stop id="SvgjsStop13715" stop-opacity="0" stop-color="#6086c4" offset="1" ></stop></linearGradient><linearGradient id="SvgjsLinearGradient14022" x1="78.944" y1="79.1453" x2="78.944" y2="108.9636" gradientUnits="userSpaceOnUse" class="svga-on-canvas-glasses-gradient-single-0-null"><stop id="SvgjsStop14023" stop-opacity="1" stop-color="#ff73b2" offset="0.004166667" ></stop><stop id="SvgjsStop14024" stop-opacity="0.8085" stop-color="#ff75ae" offset="0.1949" ></stop><stop id="SvgjsStop14025" stop-opacity="0.5986" stop-color="#ff79a0" offset="0.4039" ></stop><stop id="SvgjsStop14026" stop-opacity="0.3799" stop-color="#ff818a" offset="0.6217" ></stop><stop id="SvgjsStop14027" stop-opacity="0.1566" stop-color="#ff8b6c" offset="0.844" ></stop><stop id="SvgjsStop14028" stop-opacity="0" stop-color="#ff9452" offset="1" ></stop></linearGradient><linearGradient id="SvgjsLinearGradient14030" x1="-20.9152" y1="79.1453" x2="-20.9152" y2="108.9636" gradientTransform="matrix(-1 0 0 1 100 0)" gradientUnits="userSpaceOnUse" class="svga-on-canvas-glasses-gradient-single-1-null"><stop id="SvgjsStop14031" stop-opacity="1" stop-color="#ff73b2" offset="0.004166667" ></stop><stop id="SvgjsStop14032" stop-opacity="0.8085" stop-color="#ff75ae" offset="0.1949" ></stop><stop id="SvgjsStop14033" stop-opacity="0.5986" stop-color="#ff79a0" offset="0.4039" ></stop><stop id="SvgjsStop14034" stop-opacity="0.3799" stop-color="#ff818a" offset="0.6217" ></stop><stop id="SvgjsStop14035" stop-opacity="0.1566" stop-color="#ff8b6c" offset="0.844" ></stop><stop id="SvgjsStop14036" stop-opacity="0" stop-color="#ff9452" offset="1" ></stop></linearGradient><linearGradient id="SvgjsLinearGradient14111" x1="79.1" y1="75.8" x2="79.1" y2="108.66" gradientUnits="userSpaceOnUse" class="svga-on-canvas-glasses-gradient-single-0-null"><stop id="SvgjsStop14112" stop-opacity="1" stop-color="#b4c0cf" offset="0" ></stop><stop id="SvgjsStop14113" stop-opacity="0.9374" stop-color="#abbace" offset="0.0626" ></stop><stop id="SvgjsStop14114" stop-opacity="0.679" stop-color="#8aa3ca" offset="0.321" ></stop><stop id="SvgjsStop14115" stop-opacity="0.4305" stop-color="#7393c6" offset="0.5695" ></stop><stop id="SvgjsStop14116" stop-opacity="0.1987" stop-color="#6589c5" offset="0.8013" ></stop><stop id="SvgjsStop14117" stop-opacity="0" stop-color="#6086c4" offset="1" ></stop></linearGradient><linearGradient id="SvgjsLinearGradient14119" x1="121.5" y1="75.8" x2="121.5" y2="108.66" gradientUnits="userSpaceOnUse" class="svga-on-canvas-glasses-gradient-single-1-null"><stop id="SvgjsStop14120" stop-opacity="1" stop-color="#b4c0cf" offset="0" ></stop><stop id="SvgjsStop14121" stop-opacity="0.9374" stop-color="#abbace" offset="0.0626" ></stop><stop id="SvgjsStop14122" stop-opacity="0.679" stop-color="#8aa3ca" offset="0.321" ></stop><stop id="SvgjsStop14123" stop-opacity="0.4305" stop-color="#7393c6" offset="0.5695" ></stop><stop id="SvgjsStop14124" stop-opacity="0.1987" stop-color="#6589c5" offset="0.8013" ></stop><stop id="SvgjsStop14125" stop-opacity="0" stop-color="#6086c4" offset="1" ></stop></linearGradient><linearGradient id="SvgjsLinearGradient14191" x1="78.944" y1="79.1453" x2="78.944" y2="108.9636" gradientUnits="userSpaceOnUse" class="svga-on-canvas-glasses-gradient-single-0-null"><stop id="SvgjsStop14192" stop-opacity="1" stop-color="#ff73b2" offset="0.004166667" ></stop><stop id="SvgjsStop14193" stop-opacity="0.8085" stop-color="#ff75ae" offset="0.1949" ></stop><stop id="SvgjsStop14194" stop-opacity="0.5986" stop-color="#ff79a0" offset="0.4039" ></stop><stop id="SvgjsStop14195" stop-opacity="0.3799" stop-color="#ff818a" offset="0.6217" ></stop><stop id="SvgjsStop14196" stop-opacity="0.1566" stop-color="#ff8b6c" offset="0.844" ></stop><stop id="SvgjsStop14197" stop-opacity="0" stop-color="#ff9452" offset="1" ></stop></linearGradient><linearGradient id="SvgjsLinearGradient14199" x1="-20.9152" y1="79.1453" x2="-20.9152" y2="108.9636" gradientTransform="matrix(-1 0 0 1 100 0)" gradientUnits="userSpaceOnUse" class="svga-on-canvas-glasses-gradient-single-1-null"><stop id="SvgjsStop14200" stop-opacity="1" stop-color="#ff73b2" offset="0.004166667" ></stop><stop id="SvgjsStop14201" stop-opacity="0.8085" stop-color="#ff75ae" offset="0.1949" ></stop><stop id="SvgjsStop14202" stop-opacity="0.5986" stop-color="#ff79a0" offset="0.4039" ></stop><stop id="SvgjsStop14203" stop-opacity="0.3799" stop-color="#ff818a" offset="0.6217" ></stop><stop id="SvgjsStop14204" stop-opacity="0.1566" stop-color="#ff8b6c" offset="0.844" ></stop><stop id="SvgjsStop14205" stop-opacity="0" stop-color="#ff9452" offset="1" ></stop></linearGradient><linearGradient id="SvgjsLinearGradient14280" x1="79.1" y1="75.8" x2="79.1" y2="108.66" gradientUnits="userSpaceOnUse" class="svga-on-canvas-glasses-gradient-single-0-null"><stop id="SvgjsStop14281" stop-opacity="1" stop-color="#b4c0cf" offset="0" ></stop><stop id="SvgjsStop14282" stop-opacity="0.9374" stop-color="#abbace" offset="0.0626" ></stop><stop id="SvgjsStop14283" stop-opacity="0.679" stop-color="#8aa3ca" offset="0.321" ></stop><stop id="SvgjsStop14284" stop-opacity="0.4305" stop-color="#7393c6" offset="0.5695" ></stop><stop id="SvgjsStop14285" stop-opacity="0.1987" stop-color="#6589c5" offset="0.8013" ></stop><stop id="SvgjsStop14286" stop-opacity="0" stop-color="#6086c4" offset="1" ></stop></linearGradient><linearGradient id="SvgjsLinearGradient14288" x1="121.5" y1="75.8" x2="121.5" y2="108.66" gradientUnits="userSpaceOnUse" class="svga-on-canvas-glasses-gradient-single-1-null"><stop id="SvgjsStop14289" stop-opacity="1" stop-color="#b4c0cf" offset="0" ></stop><stop id="SvgjsStop14290" stop-opacity="0.9374" stop-color="#abbace" offset="0.0626" ></stop><stop id="SvgjsStop14291" stop-opacity="0.679" stop-color="#8aa3ca" offset="0.321" ></stop><stop id="SvgjsStop14292" stop-opacity="0.4305" stop-color="#7393c6" offset="0.5695" ></stop><stop id="SvgjsStop14293" stop-opacity="0.1987" stop-color="#6589c5" offset="0.8013" ></stop><stop id="SvgjsStop14294" stop-opacity="0" stop-color="#6086c4" offset="1" ></stop></linearGradient><linearGradient id="SvgjsLinearGradient14360" x1="78.944" y1="79.1453" x2="78.944" y2="108.9636" gradientUnits="userSpaceOnUse" class="svga-on-canvas-glasses-gradient-single-0-null"><stop id="SvgjsStop14361" stop-opacity="1" stop-color="#ff73b2" offset="0.004166667" ></stop><stop id="SvgjsStop14362" stop-opacity="0.8085" stop-color="#ff75ae" offset="0.1949" ></stop><stop id="SvgjsStop14363" stop-opacity="0.5986" stop-color="#ff79a0" offset="0.4039" ></stop><stop id="SvgjsStop14364" stop-opacity="0.3799" stop-color="#ff818a" offset="0.6217" ></stop><stop id="SvgjsStop14365" stop-opacity="0.1566" stop-color="#ff8b6c" offset="0.844" ></stop><stop id="SvgjsStop14366" stop-opacity="0" stop-color="#ff9452" offset="1" ></stop></linearGradient><linearGradient id="SvgjsLinearGradient14368" x1="-20.9152" y1="79.1453" x2="-20.9152" y2="108.9636" gradientTransform="matrix(-1 0 0 1 100 0)" gradientUnits="userSpaceOnUse" class="svga-on-canvas-glasses-gradient-single-1-null"><stop id="SvgjsStop14369" stop-opacity="1" stop-color="#ff73b2" offset="0.004166667" ></stop><stop id="SvgjsStop14370" stop-opacity="0.8085" stop-color="#ff75ae" offset="0.1949" ></stop><stop id="SvgjsStop14371" stop-opacity="0.5986" stop-color="#ff79a0" offset="0.4039" ></stop><stop id="SvgjsStop14372" stop-opacity="0.3799" stop-color="#ff818a" offset="0.6217" ></stop><stop id="SvgjsStop14373" stop-opacity="0.1566" stop-color="#ff8b6c" offset="0.844" ></stop><stop id="SvgjsStop14374" stop-opacity="0" stop-color="#ff9452" offset="1" ></stop></linearGradient><linearGradient id="SvgjsLinearGradient14449" x1="79.1" y1="75.8" x2="79.1" y2="108.66" gradientUnits="userSpaceOnUse" class="svga-on-canvas-glasses-gradient-single-0-null"><stop id="SvgjsStop14450" stop-opacity="1" stop-color="#b4c0cf" offset="0" ></stop><stop id="SvgjsStop14451" stop-opacity="0.9374" stop-color="#abbace" offset="0.0626" ></stop><stop id="SvgjsStop14452" stop-opacity="0.679" stop-color="#8aa3ca" offset="0.321" ></stop><stop id="SvgjsStop14453" stop-opacity="0.4305" stop-color="#7393c6" offset="0.5695" ></stop><stop id="SvgjsStop14454" stop-opacity="0.1987" stop-color="#6589c5" offset="0.8013" ></stop><stop id="SvgjsStop14455" stop-opacity="0" stop-color="#6086c4" offset="1" ></stop></linearGradient><linearGradient id="SvgjsLinearGradient14457" x1="121.5" y1="75.8" x2="121.5" y2="108.66" gradientUnits="userSpaceOnUse" class="svga-on-canvas-glasses-gradient-single-1-null"><stop id="SvgjsStop14458" stop-opacity="1" stop-color="#b4c0cf" offset="0" ></stop><stop id="SvgjsStop14459" stop-opacity="0.9374" stop-color="#abbace" offset="0.0626" ></stop><stop id="SvgjsStop14460" stop-opacity="0.679" stop-color="#8aa3ca" offset="0.321" ></stop><stop id="SvgjsStop14461" stop-opacity="0.4305" stop-color="#7393c6" offset="0.5695" ></stop><stop id="SvgjsStop14462" stop-opacity="0.1987" stop-color="#6589c5" offset="0.8013" ></stop><stop id="SvgjsStop14463" stop-opacity="0" stop-color="#6086c4" offset="1" ></stop></linearGradient></defs><g id="svga-group-wrapper"><g id="svga-group-backs-single"><path id="SvgjsPath11921" d="M0 0h200v200H0V0z" fill="#ecf0f1" stroke-width="none" opacity="1"></path></g><g id="svga-group-humanwrap-move" transform="matrix(1,0,0,1,0,0)"><g id="svga-group-humanwrap" transform="matrix(1,0,0,1,0,0)"><g id="svga-group-hair-back-move" transform="matrix(1,0,0,1,0,0)"><g id="svga-group-hair-back" transform="matrix(0.9599997000000001,0,0,0.9997997000000002,0,0)"><path id="SvgjsPath15375" d="M57.4 66.1s.6 88.5 3.6 102.7 3.9 17 3.9 17l81.5.7s3.9-26.6 4.8-44.6-13-82.9-13-82.9l-80.8 7.1z" fill="#d5b08b" stroke-width="none" opacity="1"></path></g></g><g id="svga-group-humanbody-back"><path id="SvgjsPath11989" d="M77.8 105.9s4.8 37.7 10 55.8c0 0-6.4 8.8-14.5 11.9-28.7 11.2-35 11.2-39.6 15.2-2.4 2.1.2 11.1 1.8 17.2 1.3 5 1.7 13.2 1.7 13.2h132.2s1.6-33-.6-39.8-7.1-2.9-21.9-4.5c-14.8-1.6-28.7-10.3-31-13.2l.3-60-38.4 4.2z" fill="#ffd0bc" stroke-width="none" opacity="1" stroke="none"></path></g><g id="svga-group-chinshadow-single"><path id="SvgjsPath12364" d="M85.6 152.8c6.6 3.5 10.7 3.5 10.7 3.5s8 0 19.6-9.5l.2-45.2-38.4 4.2c.1.1 3.6 27.7 7.9 47z" fill="#e09879" stroke-width="none" opacity="1" stroke="none"></path></g><g id="svga-group-humanbody-front"><path id="SvgjsPath11990" d="M72.1 183.1s14.6-.2 20.4 2.6c5.8 2.9 12.7 2.4 16.1-1s21.6-7 21.6-7-19.7 1.9-25 4.6c-5.3 2.7-22.3-2.8-33.1.8z" fill="#e09879" stroke-width="none" opacity="1" stroke="none"></path><path id="SvgjsPath11991" d="M74.2 173.2c6.7-1.3 14.7-6.4 14.7-6.4l6.2 5.5c-4.3-7.9-12.7-41.1-12.7-41.1l-.7.7c1.7 10.5 3.9 21.9 6.1 29.7 0 0-6 8.2-13.6 11.6z" fill="#e09879" stroke-width="none" opacity="1" stroke="none"></path><path id="SvgjsPath11992" d="M170.7 188.5c-.1-2.1-.2-4.1-.4-6.2-.1-1-.3-2.1-.6-3.2-.2-.5-.4-1-.6-1.6-.2-.5-.6-1-1-1.5s-.9-.9-1.5-1.1c-.6-.3-1.1-.4-1.7-.6-1.1-.2-2.2-.2-3.2-.2-2.1 0-4.1.1-6.1.1s-4-.1-6-.2-4-.4-6-.7c-1-.2-2-.4-2.9-.6l-1.5-.4c-.5-.1-1-.3-1.4-.4-3.8-1.1-7.6-2.6-11.2-4.4l-1.3-.7-1.3-.7c-.4-.2-.9-.5-1.3-.8s-.9-.5-1.3-.8-.8-.5-1.3-.8l-1.2-.9-.6-.5-.3-.2-.3-.2c-.2-.2-.4-.3-.5-.5l-.2-.3v-44.6l-.1-15v-.6l-.6.1c-6.4.8-12.9 1.5-19.3 2.3l-19.1 2.3v.5l.1.4.1.9.2 1.8c.1 1.2.3 2.3.4 3.5l.9 7c.6 4.7 1.3 9.4 2.1 14 .8 4.7 1.5 9.3 2.5 14 .9 4.5 1.8 9 3 13.5-1.1 1.4-2.3 2.7-3.6 4-1.3 1.3-2.8 2.6-4.3 3.8-1.5 1.1-3.1 2.2-4.8 3l-1.3.6c-.4.2-.9.3-1.3.5l-2.7 1c-7.2 2.7-14.5 5.3-21.8 7.7l-5.5 1.8c-1.8.6-3.7 1.3-5.5 2.2-.4.2-.9.5-1.3.7-.4.3-.9.5-1.3.9l-.6.5c-.2.2-.5.5-.6.8-.3.5-.4 1.1-.5 1.6-.2 1.1-.1 2.1 0 3.1s.3 2 .4 2.9c.4 1.9.8 3.8 1.3 5.7l.8 2.8c.3.9.5 1.8.7 2.8.4 1.9.7 3.8.9 5.7s.4 3.8.5 5.7v.8h133.4v-.8c.2-4.1.4-8.2.5-12.3s.2-8.2.2-12.3c0-1.8-.1-3.8-.1-5.9zm-67.4 30.3H70.2l-16.5-.1-16-.1c-.1-1.8-.2-3.5-.4-5.3-.2-1.9-.4-3.9-.8-5.8-.2-1-.4-1.9-.7-2.9l-.7-2.8c-.5-1.9-.9-3.7-1.2-5.6-.2-.9-.3-1.9-.4-2.8-.1-.9-.1-1.9 0-2.7.1-.4.2-.8.4-1.1.1-.2.2-.3.3-.4l.5-.4c.3-.3.7-.5 1.1-.8.4-.2.8-.5 1.2-.7 1.7-.8 3.5-1.4 5.3-2l5.5-1.8c7.3-2.4 14.6-5 21.8-7.8l2.7-1c.5-.2.9-.3 1.4-.5l1.4-.6c1.8-.9 3.4-2 5-3.2s3-2.5 4.4-3.9 2.7-2.9 3.8-4.5l.2-.3-.1-.3c-1.3-4.5-2.3-9.1-3.3-13.7s-1.9-9.3-2.7-13.9c-.8-4.6-1.6-9.3-2.4-14l-2.2-13.9 19.3-1.8c6.2-.6 12.3-1.2 18.5-1.8l-.2 14.4-.2 15-.3 30v.4l.2.2.6.7.6.6.3.3.3.2.6.5c.4.3.9.6 1.3.9.4.3.9.6 1.3.9.4.3.9.5 1.3.8s.9.5 1.3.8l1.4.8 1.4.7c.5.2.9.5 1.4.7l1.4.7c1 .4 1.9.8 2.9 1.2s1.9.8 2.9 1.1l1.5.5c.5.2 1 .3 1.5.4.5.1 1 .3 1.5.4l1.5.4c1 .3 2 .4 3 .6 2 .4 4.1.6 6.2.8 2.1.2 4.1.2 6.2.2 2.1 0 4.1-.1 6.1-.1s4 .1 5 1.3c.5.6.9 1.4 1.2 2.3.3.9.4 1.9.6 2.8.3 2 .4 4 .5 6s.1 4.1.2 6.1c.1 7.9-.1 15.8-.4 23.7-10.8.1-21.5.1-32.3.2h-33.1z" fill="#d17f5b" stroke-width="none" opacity="1" stroke="none"></path><path id="SvgjsPath11993" d="M150.7 219.2 147 198l-.4 21.2z" fill="#e09879" stroke-width="none" opacity="1" stroke="none"></path><path id="SvgjsPath11994" d="M47.3 203.5s2.2 11.5 2.9 15.7h3.5l-6.4-15.7z" fill="#e09879" stroke-width="none" opacity="1" stroke="none"></path></g><g id="svga-group-clothes-single"><path id="SvgjsPath14644" d="M31.7 194.7c0 2.7-1.2 11.2-5.1 15.7 0 0 5.4-2 7.2.5 1.8 2.5 2.1 4.8 5.9 2.4 3.8-2.3 4.9-.3 5.8.4.9.7 3.3 1.4 5 .1s3.2-.5 4.3.9 3.9 2.1 7.7.5 6 .5 9.8 1c3.9.5 7.8.4 8.6-.1s2.8-2 4.3-1.9 2.8 1.9 4 2.5 3.1-.8 3.9-1.3 2.2-.1 3.6.5 8.9-.2 8.9-.2.3 1.6 1.8 1.6 2.4-2 2.4-2 .3.8 2.9.3 6.8-2.7 8-2.7 2.6-.1 3.3.9.4 2 1.9 2.3 2.5.5 4.9-.7 4-2.5 6.4-.8c0 0 1.2 3.1 4.7 2.2s2.5-2.4 4.4-2.4 4.7 1.4 6.1 1.1 2.5-1.5 2.9-2.4c.4-.9 1.1-3.1 3.5-3.3 0 0 2.5 1.1 4.2-.2s2.6-2.6 4.5-3.7 4.9.3 6 0 2.6-1.4 2.8-2.9.7-2.6 1-3.4c.3-.9 2-1.4 2-1.4s-5.6-8.4-6.4-9.8-2.3-4.3-2.3-4.3-5.2 6.4-26.4 9.3c-13.2 1.8-33.6 3.8-47.6 4.3s-43.4 1.4-52.5-.1c-8.8-1.5-12.4-2.9-12.4-2.9z" fill="#6a0965" stroke-width="none" opacity="1" stroke="none"></path><path id="SvgjsPath14645" d="M137.2 193.6c-11.7 1.3-23.5 2.4-35.2 3.1-11.8.7-23.5 1.1-35.3 1.3-5.9.1-11.8.1-17.7-.3-5.9-.3-11.7-1.3-17.3-3.1 5.5 2.2 11.4 3.4 17.2 4 5.9.6 11.8.8 17.7.9 11.8.2 23.7-.1 35.5-.8 11.8-.7 23.6-1.9 35.3-3.5 5.8-.8 11.7-1.6 17.5-3.1 5.7-1.5 11.4-3.9 15.7-8-4.6 3.7-10.2 5.9-15.9 7.1-5.7 1.2-11.6 1.7-17.5 2.4zm-107.9 9.3c-.5 1.3-1 2.6-1.5 4s-1.1 2.6-1.7 4.1c1.2-.9 2.2-2.1 3-3.3.8-1.2 1.5-2.6 2-4s.8-2.9.9-4.4c.1-1.5 0-3-.5-4.5-.4 1.5-.7 2.9-1.1 4.2-.2 1.2-.6 2.5-1.1 3.9zm.2 7.7c1.1.1 2.1.3 3 .8.4.2.8.6 1.1.9.3.4.5.7.7 1.3.3.5.6 1.2 1.4 1.7s1.8.5 2.5.2c.7-.2 1.3-.6 1.8-1s.9-.7 1.3-1c.4-.3.7-.4 1.1-.4.4 0 .9.1 1.3.3.9.4 1.9 1.1 3.2 1.5.6.2 1.3.2 1.9 0 .6-.2 1.1-.6 1.3-1.2-.8.9-2 .8-2.9.3-.9-.5-1.7-1.3-2.8-1.9-.5-.3-1.2-.6-2-.7-.8-.1-1.6.2-2.2.5-.6.3-1.1.7-1.5 1.1-.4.3-.8.5-1.2.6-.4.1-.7.1-.8 0-.2-.1-.5-.4-.7-.9-.3-.5-.7-1.1-1.2-1.6s-1.1-.9-1.7-1.1c-.6-.2-1.2-.4-1.9-.4s-1.2 0-1.8.1c-1.2.2-2.4.6-3.3 1.3 1.2-.4 2.3-.6 3.4-.4zM52 209c.1-.9.1-1.7 0-2.6-.1-.9-.2-1.8-.6-2.6-.5.8-.8 1.7-1 2.5-.2.9-.4 1.7-.4 2.6s-.1 1.7 0 2.6c.1.8.2 1.6.5 2.4 0 .1-.1.1-.1.2 0-.1.1-.1.1-.1v.1c.1-.1.2-.3.2-.4.4-.3.9-.3 1.3-.2.6.1 1.2.4 1.6.8.5.4.9.9 1.4 1.4.5.5 1.1 1 1.9 1.3.8.3 1.6.3 2.3.2.8-.1 1.5-.3 2.1-.5.7-.2 1.3-.4 1.9-.6.6-.1 1.2-.2 1.8-.2 2.4 0 5 1 7.9 1.3 2.8.3 5.7.1 8.3-.6l.6-.2-.1-.6c-.5-2.4-1.1-4.7-1.8-7 .1 2.2.3 4.4.5 6.6-1.1.1-2.2.2-3.4.2-1.3 0-2.6-.1-3.9-.3-2.6-.3-5.1-1.4-8.2-1.3-3.2.1-5.5 2.3-7.7 1.8-1.1-.2-2-1.3-3.2-2.1-.6-.4-1.4-.6-2.1-.6-.4 0-.8.1-1.2.4.3-.6.5-1.2.6-1.8.4-1 .6-1.8.7-2.7zm123.5-18.2c-.7-1.1-1.5-2.3-2.3-3.4s-1.6-2.2-2.5-3.3c.2 1.4.6 2.8 1.2 4.1s1.2 2.6 2 3.7c.8 1.2 1.6 2.3 2.5 3.4.9 1.1 1.9 2.1 3 2.9-.5-1.4-1.1-2.6-1.8-3.8-.7-1.3-1.4-2.4-2.1-3.6zm3 7.5c-.3.1-.6.3-.8.4-.5.4-.8.9-1.1 1.4-.6 1-.9 2.2-1.4 3.1-.5.9-1 1.5-1.8 1.5-.7.1-1.8-.3-3-.5-.6-.1-1.4-.1-2.1.1-.7.2-1.3.5-1.8.9-1 .7-1.8 1.6-2.5 2.5-.7.8-1.4 1.6-2.3 2-.8.4-1.8.6-2.8.3-.2-1.2-.5-2.3-.9-3.4-.3-1.1-.7-2.2-1.1-3.2s-.8-2.1-1.2-3.2c-.4-1.1-.9-2.1-1.4-3.2-.2 1.2-.2 2.4-.1 3.6.1 1.2.4 2.4.8 3.5s.9 2.2 1.5 3.2 1.3 1.9 2.2 2.7c-.1 0-.1 0-.2-.1.8.9 2.2 1 3.4.7 1.2-.3 2.2-1.1 3.1-1.9 1.7-1.5 3.2-2.9 5-2.6.5.1 1 .2 1.6.3.6.1 1.2.2 2 .1.7-.1 1.5-.5 1.9-1.1.5-.5.8-1.2.9-1.7.4-1.2.5-2.3.8-3.2.3-1 .8-2.1 1.9-2.3 0-.1-.3 0-.6.1zm-21.7 12.2c-.6.3-1.1.8-1.5 1.4-.7 1.1-1.3 2.3-2.1 2.6-.8.4-1.8.1-3-.4-.6-.2-1.2-.4-1.9-.6-.7-.1-1.6-.2-2.3 0-1.5.4-2.5 1.3-3.5 1.9-1 .6-1.9.8-2.8.4-.9-.4-1.8-1.3-2.2-2.3-.5-1.1-.8-2.3-1.1-3.6-.1 1.3-.1 2.6.2 3.9v.1c-.2-.1-.4-.2-.6-.2-.7-.2-1.4-.2-2 0-1.4.3-2.5 1.1-3.6 1.6-.6.3-1.1.5-1.6.6-.6.1-1.1.1-1.6 0s-.8-.4-1.1-.8c-.3-.4-.5-1.1-1-1.7-.5-.6-1.3-1.1-2-1.3-.8-.2-1.5-.3-2.3-.2-1.5.1-2.8.8-3.9 1.4-1.2.6-2.2 1.2-3.3 1.4-1.1.2-2.2.1-2.9-.4l-.9-.7-.6.9c-.4.6-.8 1.2-1.3 1.6-.5.3-.8.3-1.1-.1-.3-.4-.6-1.2-.9-2l-.8-2.4c-1.2-3.1-2.4-6.2-3.7-9.3.7 3.3 1.6 6.5 2.4 9.7l.7 2.4.3 1.1c-1.8-.2-3.6-.3-5.3-.4-1.1-.1-2.2 0-2.8-.3-.3-.1-.8-.4-1.5-.7-.3-.1-.8-.2-1.2-.1-.4.1-.8.2-1.1.3-.6.3-1.1.6-1.5.9-.4.3-.8.5-1 .5-.2 0-.3 0-.6-.3s-.8-.9-1.3-1.2c-1.1-.7-2.4-.8-3.6-.5-1.2.3-2.2 1-2.7 2 1.7-1.4 4-1.3 5.3-.2.3.3.5.6.9 1.1.2.2.4.5.8.8.4.2.8.3 1.3.3.9-.1 1.4-.5 1.9-.8.5-.3.9-.6 1.2-.8.4-.2.6-.2.8-.1.3.1.8.4 1.4.6.7.2 1.3.2 1.9.2.6 0 1.1-.1 1.6-.1 1.8-.2 3.6-.4 5.4-.8.1.4.3.8.6 1.2.3.5.9.9 1.6 1 .7.1 1.3-.1 1.8-.4.6-.4 1.1-.8 1.4-1.3.4.2.9.4 1.3.4.8.1 1.5.1 2.2-.1 1.5-.3 2.7-1 3.8-1.6 1.1-.6 2.2-1.1 3.2-1.3 1.1-.1 2.2.1 2.8.7.3.3.5.9 1 1.5.5.7 1.3 1.1 2.1 1.2 1.5.3 3-.4 4.1-1.1 1.1-.7 2.1-1.5 3.2-1.9.8-.3 1.7-.4 2.6-.1.4 1.2 1.1 2.3 2.3 3 .6.4 1.5.6 2.3.5.8-.1 1.5-.3 2.1-.6 1.2-.6 2.2-1.4 3.2-1.6.3-.1.7-.1 1.1-.1l.4 3.2c-7.9.1-15.8.2-23.7.2-8.1 0-16.2-.3-24.3-.4-8.1-.2-16.2-.1-24.3-.1-8 .1-16 .2-24 .4l-1.4-5.1c-.1.1-.2.1-.3.2l1.1 5.4.1.3h.3c8.1.2 16.2.4 24.3.5 8.1.1 16.2.1 24.3-.1 8.1-.1 16.2-.4 24.3-.4s16.2 0 24.3.2h.6l-.1-.6-.3-3.4c.3.1.5.2.8.2.6.2 1.3.4 2 .5.7.1 1.6 0 2.3-.5.7-.4 1.2-1.1 1.4-1.7.3-.6.5-1.2.7-1.8.2-.5.6-1 1-1.4.4-.4 1-.7 1.6-.5-.3-.3-1.1-.2-1.7.1z" fill="#4b0048" stroke-width="none" opacity="1" stroke="none"></path><path id="SvgjsPath14646" d="M176.4 198.5c-2.7-3.3-4.9-6.3-6.5-10.3-.1-.1-.3-.1-.2.1.9 3.9 3 8.2 6.3 10.7.2.2.6-.2.4-.5zm-1.5.3c-.9.4-.9.8-1.4 1.5-1.2 1.7-2.9.7-4.6 1-2.5.4-5 3.1-6.4 5-.2.3.2.6.5.5 1.2-.7 2.2-1.6 3.2-2.5 1-.9 2.1-1.8 3.5-1.9.4 0 1.6.3 2.1.3 2.5-.2 1.6-2.2 3.3-3.4.3-.1.1-.7-.2-.5zm-20.1 9.9c-1.1-3.5-2.3-6.8-3.1-10.3-.1-.3-.7-.3-.6.1.4 3.6 1.4 7.4 3.3 10.4 0 .3.5.1.4-.2zm-.2.8c-.9.3-.4.6-1.2 1-3.6 1.8-3.1 0-5.7 0-.9 0-1.6.4-2.4.9-.4.3-1.6 1.3-1.8 1.4-1.7.6-3.4-.4-4.5-1.5-.3-.3-.7.1-.5.4 1.7 3.7 4.2 3.3 7.1 1.3 1.9-1.3 2.8-.7 4.9-.1.6.2 1.2.4 1.9.3 2.1-.4 1.3-1.9 2.6-3 .2-.3-.1-.8-.4-.7zm-21.7-6.6c-.3 1.8.5 3.9.2 5.5-1.4 7-4.9 3.6-7.2 2.4-.7-.4-1.4-.7-2.2-.9-4.9-1.4-8.1 2.7-12.8 1.8-.4-.1-.6.5-.2.6 3.8 1.4 4.2-.4 7.9-1.4 5-1.4 7.2 3.2 11.4 2.9 5.4-.3 3.1-7.8 3.1-10.9.1-.1-.2-.1-.2 0zm-29.3 1.5c.5 2.9 1.4 5.7 2.9 8.2.1.2.5.1.4-.2-1-2.7-2-5.4-2.9-8.2-.2-.2-.5-.1-.4.2zm-3.4 7.7c-2.6.7-4.3-1.5-6.7-1-.3.1-.7.3-1 .4-1.4.3-2 .2-3.5-.2-2.5-.7-4.6-.5-6.5 1.4-.2.2.1.6.3.4 1.4-1 3.1-1.7 4.9-1.2.9.2 1.6 1.1 2.4 1.3.6.2 1 .2 1.7.1 1.1-.3 1.3-.7 2.6-.9 1.3-.1 2 .4 3.2.6 1.2.2 1.8.3 2.8-.5.4-.1.2-.5-.2-.4zm-23-6.7c0 1.2.8 6.2-.2 6.6-.5.2-4.7-1.4-5.6-1.5-5.4-.5-10.5 3.4-15.4 1.2-.6-.3-1.1.5-.5.9 2.5 1.8 4 2 6.9 1 5.5-2 9.9-2.7 15.4 0 .3.2.9 0 .9-.5-.3-2.6-.4-5.3-.8-7.9-.2-.2-.7-.1-.7.2zm-29.3-.6c-.2 2-.5 3.9-.7 5.9-1.6-2-4.3-3-6.9-2.1-.6.2-1.3.9-1.9 1.1-2.4.5-1.5-.4-2.6-1-.7-.4-4.1-1.9-4.1-2.3 0-.3-.3-.5-.5-.2-.4.8-.6 1.1.1 1.9.4.4.9.4 1.3.6 1.2.6 2 1.5 3 2.2 1 .7 1.1 1.1 2.5.6.6-.2 1.6-1.2 1.7-1.3 2.8-1.6 5.7-.5 7.3 2 .2.4.8.2.8-.2.1-2.4.3-4.8.4-7.1.1-.4-.3-.4-.4-.1z" fill="#791674" stroke-width="none" opacity="1" stroke="none"></path></g><g id="svga-group-head" transform="matrix(1,0,0,1,0,0)"><g id="svga-group-ears-left-move" transform="matrix(1,0,0,1,3,0)"><g id="svga-group-ears-left" transform="matrix(1,0,0,1,0,0)"><path id="SvgjsPath12778" d="M65.8 98.48s-4.2-8.27-8.66-11.42c-4.46-3.15-9.84-3.15-9.84-3.15s-3.02 2.1-1.97 12.6c0 0 4.46 10.76 12.47 14.7 0 0 5.77 1.31 8.66.66-.01-.01 2.09-6.18-.66-13.39z" fill="#ffd0bc" stroke-width="none" opacity="1"></path><path id="SvgjsPath12779" d="M64.88 101.76s-3.67-7.87-6.04-9.84c-2.36-1.97-7.87-5.12-9.32-3.28-1.44 1.84-1.57 7.61-1.57 7.61s1.57 4.59 6.3 7.09c4.72 2.49 10.37 2.76 10.37 2.76l.26-4.34z" fill="#f0b399" stroke-width="none" opacity="1"></path><path id="SvgjsPath12780" d="M44.99 93.25c.02 1.09.09 2.19.17 3.28v.02l.01.03a39.54 39.54 0 0 0 2.2 4.42c.82 1.43 1.75 2.79 2.75 4.11 1.02 1.3 2.15 2.51 3.38 3.64 1.25 1.1 2.62 2.07 4.12 2.83l.04.02.05.01c1.45.31 2.89.55 4.36.7.73.07 1.47.13 2.22.13.74-.01 1.5-.05 2.25-.23l.19-.05.05-.17c.33-1.14.5-2.27.58-3.42.08-1.15.08-2.3-.01-3.44a23.99 23.99 0 0 0-.52-3.38c-.23-1.12-.59-2.2-.99-3.27-.94-1.86-2.02-3.63-3.13-5.4-1.14-1.74-2.35-3.46-3.85-4.95-.75-.74-1.6-1.4-2.5-1.96-.91-.56-1.88-.98-2.87-1.35-1.99-.73-4.08-1.08-6.19-1.12h-.08l-.04.04c-.89.85-1.22 1.93-1.54 2.98-.29 1.06-.45 2.16-.54 3.25-.09 1.09-.13 2.18-.11 3.28zm.33-3.27c.11-1.08.28-2.15.59-3.19.15-.52.35-1.02.59-1.49.23-.44.53-.89.86-1.18 2.01.12 4.01.6 5.9 1.29 1.9.73 3.7 1.74 5.19 3.13 1.5 1.39 2.82 2.99 4.04 4.67 1.22 1.67 2.29 3.46 3.28 5.28.37 1.07.71 2.15.91 3.27.24 1.11.32 2.24.36 3.37.04 1.13-.04 2.26-.19 3.37-.14 1.04-.35 2.09-.65 3.07-.62.1-1.26.12-1.91.1-.71-.01-1.43-.06-2.14-.14-1.41-.15-2.83-.4-4.21-.7-1.39-.74-2.72-1.62-3.93-2.66-1.2-1.07-2.33-2.24-3.35-3.49a42.391 42.391 0 0 1-2.82-3.96c-.86-1.37-1.66-2.79-2.33-4.25l-.16-1.59c-.05-.54-.06-1.09-.09-1.63-.04-1.1-.03-2.18.06-3.27z" fill="#f0b399" stroke-width="none" opacity="1"></path><path id="SvgjsPath12781" d="M49.2 91.53c.18-.69.39-1.36.67-2.03.07-.16.16-.33.26-.48.11-.15.23-.33.48-.37.45.02.72.22 1.06.37a18.3 18.3 0 0 1 3.48 2.44c.53.48 1.03 1.01 1.42 1.66.18.33.36.69.38 1.14.01.25-.01.36-.01.54l.01.51c.16 2.77.58 5.56.83 8.36l-.07.01c-.34-1.37-.61-2.75-.86-4.13-.26-1.39-.44-2.78-.55-4.2l-.03-.54v-.51c0-.26-.13-.56-.28-.84-.31-.57-.74-1.11-1.21-1.61-.94-1-2.01-1.94-3.22-2.61-.29-.16-.65-.33-.91-.33-.23.06-.41.43-.53.73-.26.63-.39 1.33-.52 2.01-.23 1.37-.39 2.77-.48 4.15-.02.34-.04.7-.02 1.01-.01.17.21.46.41.71.42.52.91 1.02 1.4 1.5.81.79 1.65 1.57 2.5 2.33.09-.91.18-1.82.24-2.74.04-.59.07-1.17.08-1.75.01-.53.01-1.07-.06-1.58-.15-.02-.33-.03-.5-.02a4.1 4.1 0 0 0-.69.1c-.46.1-.91.25-1.35.43l-.03-.07c.41-.25.85-.46 1.32-.62.23-.08.47-.15.72-.19.26-.04.49-.07.79-.01l.11.02.03.13c.15.61.18 1.21.22 1.81.02.6.02 1.19.01 1.79-.03 1.19-.08 2.37-.19 3.56l-.07.75-.58-.49c-1.08-.92-2.11-1.87-3.11-2.88-.49-.51-.98-1.03-1.43-1.61-.11-.15-.22-.3-.32-.47-.05-.09-.1-.18-.14-.29-.05-.11-.07-.28-.07-.37-.01-.39.03-.74.06-1.1.14-1.45.39-2.84.75-4.22z" fill="#d17f5b" stroke-width="none" opacity="1"></path></g></g><g id="svga-group-ears-right-move" transform="matrix(1,0,0,1,-3,0)"><g id="svga-group-ears-right" transform="matrix(1,0,0,1,0,0)"><path id="SvgjsPath12782" d="M134.2 98.48s4.2-8.27 8.66-11.42c4.46-3.15 9.84-3.15 9.84-3.15s3.02 2.1 1.97 12.6c0 0-4.46 10.76-12.47 14.7 0 0-5.77 1.31-8.66.66.01-.01-2.09-6.18.66-13.39z" fill="#ffd0bc" stroke-width="none" opacity="1"></path><path id="SvgjsPath12783" d="M135.12 101.76s3.67-7.87 6.04-9.84c2.36-1.97 7.87-5.12 9.32-3.28 1.44 1.84 1.57 7.61 1.57 7.61s-1.57 4.59-6.3 7.09c-4.72 2.49-10.37 2.76-10.37 2.76l-.26-4.34z" fill="#f0b399" stroke-width="none" opacity="1"></path><path id="SvgjsPath12784" d="M154.91 89.96c-.09-1.09-.25-2.18-.54-3.25-.32-1.05-.65-2.13-1.54-2.98l-.04-.04h-.08c-2.11.04-4.21.39-6.19 1.12-.99.37-1.96.79-2.87 1.35-.9.56-1.75 1.22-2.5 1.96-1.5 1.49-2.71 3.21-3.85 4.95-1.11 1.77-2.18 3.54-3.13 5.4-.39 1.07-.76 2.15-.99 3.27a23.99 23.99 0 0 0-.52 3.38c-.1 1.14-.09 2.29-.01 3.44s.25 2.28.58 3.42l.05.17.19.05c.75.18 1.51.22 2.25.23.75 0 1.48-.05 2.22-.13 1.47-.15 2.91-.39 4.36-.7l.05-.01.04-.02c1.5-.76 2.87-1.73 4.12-2.83 1.23-1.12 2.36-2.34 3.38-3.64 1-1.31 1.93-2.68 2.75-4.11.82-1.43 1.57-2.89 2.2-4.42l.01-.03v-.02c.07-1.09.14-2.18.17-3.28.01-1.09-.03-2.18-.11-3.28zm-.16 3.28c-.03.54-.04 1.09-.09 1.63l-.16 1.59c-.67 1.47-1.47 2.89-2.33 4.25-.87 1.37-1.8 2.7-2.82 3.96a29.855 29.855 0 0 1-3.35 3.49 21.554 21.554 0 0 1-3.93 2.66c-1.38.3-2.8.54-4.21.7-.71.08-1.43.13-2.14.14-.64.01-1.29 0-1.91-.1-.3-.98-.51-2.03-.65-3.07-.15-1.11-.22-2.24-.19-3.37.04-1.13.12-2.26.36-3.37.2-1.12.54-2.2.91-3.27.98-1.82 2.05-3.61 3.28-5.28 1.21-1.67 2.54-3.28 4.04-4.67 1.49-1.39 3.28-2.4 5.19-3.13 1.88-.69 3.89-1.17 5.9-1.29.34.29.63.74.86 1.18.25.47.44.97.59 1.49.3 1.03.48 2.11.59 3.19.08 1.1.09 2.18.06 3.27z" fill="#f0b399" stroke-width="none" opacity="1"></path><path id="SvgjsPath12785" d="M150.8 91.53c-.18-.69-.39-1.36-.67-2.03-.07-.16-.16-.33-.26-.48-.11-.15-.23-.33-.48-.37-.45.02-.72.22-1.06.37a18.3 18.3 0 0 0-3.48 2.44c-.53.48-1.03 1.01-1.42 1.66-.18.33-.36.69-.38 1.14-.01.25.01.36.01.54l-.01.51c-.16 2.77-.58 5.56-.83 8.36l.07.01c.34-1.37.61-2.75.86-4.13.26-1.39.44-2.78.55-4.2l.03-.54v-.51c0-.26.13-.56.28-.84.31-.57.74-1.11 1.21-1.61.94-1 2.01-1.94 3.22-2.61.29-.16.65-.33.91-.33.23.06.41.43.53.73.26.63.39 1.33.52 2.01.23 1.37.39 2.77.48 4.15.02.34.04.7.02 1.01.01.17-.21.46-.41.71-.42.52-.91 1.02-1.4 1.5-.81.79-1.65 1.57-2.5 2.33-.09-.91-.18-1.82-.24-2.74-.04-.59-.07-1.17-.08-1.75-.01-.53-.01-1.07.06-1.58.15-.02.33-.03.5-.02.23.01.46.05.69.1.46.1.91.25 1.35.43l.03-.07c-.41-.25-.85-.46-1.32-.62a4.23 4.23 0 0 0-.72-.19c-.26-.04-.49-.07-.79-.01l-.11.02-.03.13c-.15.61-.18 1.21-.22 1.81-.02.6-.02 1.19-.01 1.79.03 1.19.08 2.37.19 3.56l.07.75.58-.49c1.08-.92 2.11-1.87 3.11-2.88.49-.51.98-1.03 1.43-1.61.11-.15.22-.3.32-.47.05-.09.1-.18.14-.29.05-.11.07-.28.07-.37.01-.39-.03-.74-.06-1.1a26.8 26.8 0 0 0-.75-4.22z" fill="#d17f5b" stroke-width="none" opacity="1"></path></g></g><g id="svga-group-faceshape-wrap" transform="matrix(0.9599997000000001,0,0,0.9997997000000002,4.004029968964375,0.01807707499997946)"><g id="svga-group-faceshape-single"><path id="SvgjsPath12354" d="M135.9 49.8c-6.7-7.4-11.3-13.2-28.8-17.3-1.8-.4-12.3-.4-14.1 0-17.5 4.1-22.1 9.9-28.8 17.3-7.1 7.8-9.5 29-9.5 29 0 9.6 1.3 32.3 13.3 47.2 17.8 22.2 32.1 22.3 32.1 22.3s14.2 0 32.1-22.3c12-14.9 13.3-37.6 13.3-47.2-.1 0-2.5-21.2-9.6-29z" fill="#ffd0bc" stroke-width="none" opacity="1" stroke="none"></path><path id="SvgjsPath12355" d="M107.1 32.5c-1.8-.4-12.3-.4-14.1 0-17.5 4.1-22.1 9.9-28.8 17.3-7.1 7.8-9.5 29-9.5 29 0 9.6 1.3 32.3 13.3 47.2 17.8 22.2 32.1 22.3 32.1 22.3s14.2 0 32.1-22.3c12-14.9 13.3-37.6 13.3-47.2 0 0-2.4-21.2-9.5-29-6.9-7.4-11.5-13.2-28.9-17.3zM142 63.8c.7 2.5 1.1 5 1.6 7.5.4 2.5.7 5 1 7.5-.2 7.4-1.3 14.8-3 22-.9 3.6-1.9 7.1-3.3 10.5-.7 1.7-1.4 3.4-2.2 5s-1.7 3.2-2.7 4.7l-1.5 2.2c-.3.4-3.4 4.2-3.4 4.2l-3.7 4.1-6.1 5.7c-2.8 2.3-5.8 4.5-9 6.2l-1.2.6-1.2.6c-.8.4-1.6.7-2.5 1l-1.3.4c-.4.1-.8.2-1.3.3-.4.1-1.71.43-2.9.4 0 0-1.4-.2-1.9-.3-.4-.1-.9-.2-1.3-.3l-1.3-.4c-.8-.3-1.7-.6-2.5-1l-1.2-.5-1.2-.6c-3.2-1.6-6.3-3.7-9.1-6l-4.1-3.6-3.9-3.9-1-1-.9-1-1.8-2.1c-1.2-1.4-2.3-2.8-3.3-4.4-1-1.5-2-3.1-2.8-4.8-.8-1.6-1.6-3.3-2.3-5.1-.7-1.7-1.3-3.5-1.8-5.3s-1-3.6-1.4-5.4-.8-3.6-1-5.5c-.3-1.8-.5-3.7-.7-5.5-.4-3.7-.5-7.4-.5-11.1.3-2.3.8-4.6 1.2-6.9.5-2.3 1.1-4.6 1.7-6.8.7-2.2 1.4-4.5 2.3-6.6.4-1.1.9-2.1 1.4-3.1s2.59-4.47 6.3-8.1c1.6-1.7 3.3-3.3 5-4.7 3.5-2.8 7.7-4.9 12-6.5l1.6-.6c6.69-2.31 10.6-2.2 11.8-2.3 2.3-.1 4.71-.26 7-.1 3.16.22 6.8 1.4 6.8 1.4 2.3.6 4.5 1.3 6.7 2.3.3.1 1.6.7 1.6.7.5.3 2.6 1.3 3.1 1.7.5.3 5.3 3.7 6.9 5.4 1.7 1.7 3.3 3.4 4.9 5.2 1.7 1.9 2.9 4.2 3.9 6.6 1.1 2.4 1.9 4.8 2.5 7.3z" fill="#d17f5b" stroke-width="none" opacity="1" stroke="none"></path></g></g><g id="svga-group-mouth-single-move" transform="matrix(1,0,0,1,0,0)"><g id="svga-group-mouth-single" transform="matrix(0.8999995000000002,0,0,0.8999995000000002,10.048050575695015,12.78369238188742)"><path id="SvgjsPath12620" d="M87.31 126.35s4.15 7.5 12.43 10.24c0 0 8.85-2.64 12.99-9.28 0 0-3.79.22-5.26-.66-1.46-.89-7.06-2.21-9.56-1.55-2.5.66-3.88 1.11-5.6 1.25-1.73.15-5 0-5 0z" fill="#e8818d" stroke-width="none" opacity="1" stroke="none"></path><path id="SvgjsPath12621" d="M87.35 126.37c.04.03.05.03.07.06l.07.1.14.2.29.4c.19.27.4.52.61.78.42.51.85 1.01 1.3 1.51.9.98 1.87 1.91 2.91 2.77 1.03.88 2.16 1.64 3.34 2.35l.9.51c.31.16.62.31.94.46l.47.24.49.2.98.4h-.2c1.33-.39 2.65-.89 3.9-1.48s2.44-1.29 3.54-2.07c1.11-.77 2.1-1.66 3.01-2.6l.66-.72.59-.76.29-.38.26-.4.52-.79.34.45c-1.12.07-2.22.07-3.34-.06-.56-.07-1.12-.16-1.69-.37-.14-.04-.28-.12-.42-.19l-.33-.17c-.22-.1-.45-.2-.69-.28-.96-.34-2-.6-3.03-.81-1.04-.2-2.09-.38-3.14-.43-.52-.02-1.04-.03-1.54.03-.47.05-.99.21-1.52.34-1.04.26-2.09.54-3.18.72-1.09.19-2.22.22-3.31.19-.55-.01-1.09-.04-1.64-.08l-.82-.05-.41-.03-.2-.02-.1-.01c-.04.01-.08.02-.06-.01zm-.08-.04c.08-.03.11-.01.14-.02H87.71l.41-.01.82-.01c.54-.01 1.09-.03 1.63-.05 1.09-.03 2.14-.12 3.17-.36 1.03-.23 2.05-.54 3.08-.84.52-.14 1.02-.31 1.62-.41.58-.09 1.15-.09 1.71-.08 1.13.04 2.23.19 3.31.41 1.08.22 2.14.48 3.18.88.26.1.52.21.77.33l.37.2c.1.05.18.1.3.14.43.17.94.27 1.45.35 1.03.14 2.12.17 3.17.14l.66-.02-.32.47c-.75 1.08-1.58 2.12-2.58 3.02-.98.92-2.05 1.76-3.19 2.52a35.09 35.09 0 0 1-3.56 2.11c-1.24.64-2.5 1.24-3.87 1.72l-.09.03-.11-.04c-1.39-.46-2.77-.98-3.99-1.73a21.21 21.21 0 0 1-3.41-2.47c-1.03-.92-1.98-1.9-2.81-2.95-.41-.53-.81-1.06-1.17-1.62-.18-.28-.36-.55-.52-.84-.09-.14-.16-.28-.24-.43l-.11-.22-.06-.11c-.03.01-.05-.07-.06-.11z" fill="#e0727e" stroke-width="none" opacity="1" stroke="none"></path><path id="SvgjsPath12622" d="M86.62 125.98s2.58.37 4.31-.96c1.72-1.33 4.39-3.84 5.26-5.39.86-1.55 1.03 1.03 3.53 1.92 2.5.89 3.36-1.7 3.88-2.14.52-.44 3.51 5.41 5.9 6.35 2.24.88 3.99 1.1 3.99 1.1s-2.27 1.53-5.84.67c-3.26-.79-5.43-1.84-6.89-1.77-1.46.07-5 1.62-8.18 1.4-3.2-.22-4.84-.52-5.96-1.18z" fill="#e0727e" stroke-width="none" opacity="1" stroke="none"></path><path id="SvgjsPath12623" d="M86.58 125.97c.01-.02.08-.03.08-.02h.53c.19 0 .38-.01.57-.03.38-.03.75-.09 1.11-.17.72-.17 1.38-.48 1.9-.9 1.09-.91 2.11-1.88 3.08-2.88.48-.51.94-1.02 1.35-1.55.2-.27.4-.54.56-.81.08-.13.16-.31.31-.48.08-.09.16-.19.38-.27.11-.04.26-.05.37-.02.12.02.2.07.27.11.25.16.34.31.47.45l.33.4c.22.26.43.51.68.73.49.43 1.11.79 1.76.92.33.07.66.06.97-.04.31-.1.59-.27.84-.5.25-.22.46-.48.66-.75l.3-.42.16-.21c.03-.04.06-.07.09-.11.02-.02.03-.04.05-.06l.03-.03.02-.01c.01-.01.03-.02.04-.03.05-.03.14-.04.19-.04.05.01.1.02.13.04.06.03.11.06.15.1.08.07.14.13.2.2.12.14.23.28.33.42l.61.84c.39.56.8 1.12 1.21 1.67.42.55.86 1.09 1.34 1.59.48.5 1 .99 1.61 1.31.15.08.3.14.48.2.17.06.35.12.53.18.35.12.71.22 1.07.32.72.19 1.46.36 2.18.45l.86.11-.69.43c-1.04.65-2.23.96-3.46 1.03-.61.03-1.23.02-1.83-.08-.3-.03-.6-.11-.9-.16-.28-.07-.57-.13-.85-.21-1.13-.28-2.22-.65-3.31-.99-.54-.16-1.08-.34-1.6-.45-.26-.06-.52-.09-.77-.11-.24-.01-.48.03-.75.07-1.07.22-2.2.56-3.33.8-1.14.24-2.32.44-3.53.42-.61-.01-1.19-.07-1.77-.14-.58-.06-1.16-.14-1.73-.23-.58-.1-1.15-.21-1.71-.38-.28-.08-.55-.17-.82-.29-.13-.06-.26-.12-.39-.19-.06-.04-.12-.06-.19-.11-.06-.02-.12-.08-.17-.12zm.08.02c.07.03.13.03.18.05l.18.08.39.15c.26.09.54.16.82.22.56.12 1.12.19 1.7.25.57.06 1.15.1 1.72.13.58.03 1.15.07 1.71.04 1.12-.05 2.23-.26 3.33-.54 1.11-.27 2.16-.63 3.34-.9.3-.06.63-.12.98-.1.33.01.65.05.95.11.6.12 1.16.28 1.71.46 1.1.35 2.17.69 3.26 1 .27.08.55.15.82.22.27.05.53.13.8.16.54.1 1.09.12 1.63.1.55-.02 1.09-.1 1.61-.23.51-.13 1.05-.33 1.46-.57l.17.54c-.8-.13-1.53-.32-2.27-.55-.37-.12-.73-.24-1.08-.38-.18-.07-.36-.14-.53-.21-.17-.06-.37-.16-.54-.26-.67-.42-1.15-.95-1.62-1.48-.45-.54-.88-1.09-1.29-1.65l-1.22-1.68c-.2-.28-.41-.56-.63-.82-.11-.13-.22-.26-.34-.38-.06-.06-.12-.12-.18-.16a.922.922 0 0 0-.08-.05c-.03-.01 0 .01.05-.01l.01-.01-.01.01-.02.02c-.01.01-.02.03-.04.04-.02.03-.05.06-.07.09l-.13.21-.27.44c-.19.29-.4.59-.66.85-.26.27-.59.51-1 .66-.4.15-.87.19-1.29.12-.85-.13-1.58-.51-2.17-1-.29-.25-.56-.51-.78-.79l-.33-.4c-.1-.12-.23-.26-.29-.29-.01-.01-.01-.01.01 0s.07 0 .09-.01c.04-.02-.01 0-.04.05-.08.09-.15.22-.25.38-.18.31-.4.59-.62.88-.45.56-.93 1.08-1.44 1.58-1.02 1-2.11 1.94-3.28 2.81-.62.45-1.39.73-2.16.85a7.684 7.684 0 0 1-1.75.07l-.29-.03-.14-.02-.07-.01-.04-.01c-.03.01.01-.01 0-.03z" fill="#d96371" stroke-width="none" opacity="1" stroke="none"></path></g></g><g id="svga-group-eyes-left-move" transform="matrix(1,0,0,1,0,0)"><g id="svga-group-eyes-left" transform="matrix(1,0,0,1,0,0)"><g id="svga-group-eyesback-left"><path id="SvgjsPath13602" d="M80.2 77.2c7.5 0 13.5 5.8 13.5 13s-6 13-13.5 13-13.5-5.8-13.5-13 6-13 13.5-13z" fill="#ffffff" stroke-width="none" opacity="1"></path></g><g id="svga-group-eyesiriswrapper-left" transform="matrix(1,0,0,1,0,0)"><g id="svga-group-eyesiriscontrol-left" transform="matrix(1,0,0,1,0,0)"><g id="svga-group-eyesiris-left" transform="matrix(1,0,0,1,0,0)"><path id="SvgjsPath12974" d="M80.2 84.9c2.9 0 5.3 2.4 5.3 5.3s-2.4 5.3-5.3 5.3-5.3-2.4-5.3-5.3 2.4-5.3 5.3-5.3z" fill="#8691ba" stroke-width="none" opacity="1" stroke="none"></path><path id="SvgjsPath12975" d="M80.2 85.2c2.8 0 5.1 2.3 5.1 5.1s-2.3 5.1-5.1 5.1-5.1-2.3-5.1-5.1 2.3-5.1 5.1-5.1m0-.6c-3.1 0-5.6 2.5-5.6 5.6s2.5 5.6 5.6 5.6 5.6-2.5 5.6-5.6-2.5-5.6-5.6-5.6z" fill="#51619b" stroke-width="none" opacity="1" stroke="none"></path><path id="SvgjsPath12976" d="M77.4 91.7c0 1.3.5 2.5 1.3 3.3.5.1 1 .2 1.5.2 2.8 0 5.1-2.3 5.1-5.1 0-1-.3-2-.8-2.8-.7-.3-1.4-.5-2.2-.5-2.8.1-4.9 2.3-4.9 4.9z" fill="#a5adc9" stroke-width="none" opacity="1" stroke="none"></path><path id="SvgjsPath12977" d="M80.2 87.5c1.5 0 2.7 1.2 2.7 2.7s-1.2 2.7-2.7 2.7-2.7-1.2-2.7-2.7 1.2-2.7 2.7-2.7z" fill="#000000" stroke-width="none" opacity="1"></path><path id="SvgjsPath12978" d="M79 87.5c.5 0 .9.4.9.9s-.4.9-.9.9-1-.4-1-.9.5-.9 1-.9zm3.1 4.3c.2 0 .4.2.4.4s-.2.4-.4.4-.4-.2-.4-.4.2-.4.4-.4z" fill="#ffffff" stroke-width="none" opacity="1"></path><path id="SvgjsPath12979" d="M80.2 95.3c.3 0 .5 0 .8-.1-.2 0-.3-.2-.4-.3-.1.2-.3.4-.4.4-.3 0-.5-.2-.5-.4-.1.2-.4.3-.6.2-.2-.1-.4-.3-.4-.5-.2.2-.4.2-.6.1s-.3-.3-.3-.5c-.2.1-.5.1-.7 0s-.2-.5-.1-.7c-.2.2-.5.1-.7 0-.2-.2-.2-.5 0-.7-.2 0-.5-.1-.7-.3.9 1.7 2.6 2.8 4.6 2.8zm-4.6-3zm8.8.7c-.1.1-.3.2-.5.1.1.4-.3.8-.8.7.1.2 0 .4-.2.6-.2.1-.4.1-.6 0 0 .2-.1.4-.3.5s-.4 0-.6-.2c0 .2-.1.4-.2.5 1.4-.3 2.5-1.1 3.2-2.2zm-1.8-7.1c.3-.1.6.2.5.5.3-.2.8.3.6.6.2-.1.4 0 .4.2s.1.3-.1.5c.2 0 .5.1.6.3.1.2.1.5-.1.7.2 0 .4.2.5.4.1.2 0 .5-.2.6.2.1.3.3.3.5s-.1.4-.3.5c.2.1.3.3.3.5s-.2.4-.4.4c.3.2.1.8-.2.8.1.1.1.3.1.5.4-.8.7-1.6.7-2.6 0-2-1.2-3.8-2.9-4.6.1 0 .2.1.2.2zm-.6-.2c.1-.1.2-.1.3 0-.5-.2-1-.4-1.5-.4v.1c.4-.2.9 0 1.2.3zm-5.5 7c.2 0 .3-.1.4-.2.2-.1.3-.2.4-.3v-.1c-.2.1-.3.1-.4.2-.1.2-.3.2-.4.4 0-.1 0 0 0 0zm-1.2-1.5c.1 0 .3 0 .4-.1.2 0 .3-.1.5-.1v-.1c-.2 0-.3 0-.5.1s-.3 0-.4.2c0-.1 0 0 0 0zm.5-2.5c.4.1.8.3 1.2.4 0 0 .1 0 0-.1-.4-.1-.8-.3-1.2-.3 0-.1 0 0 0 0zm.2-.7c.2.2.4.3.7.4 0 0 .1 0 0-.1-.2-.2-.5-.3-.7-.3-.1-.1-.1-.1 0 0zm3.7 6.5c.1-.3.2-.7.2-1 0 0-.1-.1-.1 0-.1.3-.1.7-.1 1zm3.5-4c.3.1.7.1 1.1.1v-.1h-1.1zm.2-.7c.3 0 .7.1 1 0v-.1c-.3 0-.6 0-1 .1zm.2-2.7c-.3.2-.6.5-.9.8 0 0 0 .1 0 0 .3-.2.6-.5.9-.8.1 0 0 0 0 0zm-2.8-1.3c-.1.3-.2.5-.2.8 0 .1.1.1.1 0 .1-.2.1-.5.1-.8zm-2.9.3c.1.2.2.5.3.7h.1c-.1-.2-.3-.4-.4-.7z" fill="#51619b" stroke-width="none" opacity="1" stroke="none"></path></g></g></g><g id="svga-group-eyesfront-left"><path id="SvgjsPath13610" d="M80.2 76.7c-7.8 0-14.1 6.1-14.1 13.6s6.3 13.6 14.1 13.6 14.1-6.1 14.1-13.6S88 76.7 80.2 76.7zm7.4 21.1c-2.7 3.6-11.7 2.9-13.6 1.8-1.8-1.2-4.5-5.9-4-9.2s14.2-8.1 20.8-3.2c.1 0-.5 7-3.2 10.6z" fill="#ffd0bc" stroke-width="none" opacity="1" stroke="none"></path><path id="SvgjsPath13611" d="M92 89.6s-5.4-1.9-7.7-2.1c-2.3-.1-11.7.9-15.3 4 0 0-.6-4.5 0-6.1s3.8-4.7 5.7-5.6 10.8.9 13.2 2.7c2.5 1.8 3.9 4 4.1 7.1z" fill="#f7c1aa" stroke-width="none" opacity="1" stroke="none"></path><path id="SvgjsPath13612" d="M92.5 89.7c-.2-.1-.3-.2-.5-.3-.1-1.5-.5-3-1.3-4.2-.8-1.3-1.9-2.4-3.2-3.2-1.4-.8-2.8-1.2-4.3-1.6-1.5-.4-3-.7-4.5-.9-.8-.1-1.5-.2-2.3-.2-.4 0-.8 0-1.2.1-.2 0-.4.1-.6.2-.2.1-.4.2-.5.3-1.3.8-2.5 1.8-3.5 3-.5.6-1 1.2-1.4 1.8-.2.3-.4.7-.5 1.1-.1.4-.1.8-.2 1.2-.1 1.6.1 3.1.3 4.6v.1c-.3.3-.7.7-.9 1 .6-.3 1.3-.6 1.9-.9 0 .5.1 1.1.2 1.6.3 1.2.8 2.4 1.4 3.4.6 1.1 1.4 2.1 2.4 2.8.5.3 1.2.5 1.8.6.3.1.6.1.9.2l.9.1c2.4.2 4.9.2 7.3-.6 1.2-.4 2.4-1 3.1-2.1.7-1 1.2-2.2 1.7-3.3.6-1.6.9-3.3 1.2-5 .6.1 1.2.2 1.8.2zM69.1 87c0-.4.1-.7.1-1.1.1-.3.2-.7.4-1 .4-.6.8-1.2 1.3-1.8 1-1.1 2.1-2.1 3.4-2.9.2-.1.3-.2.5-.3.2-.1.3-.1.5-.2.3-.1.7-.1 1.1-.1.7 0 1.5.1 2.2.2 1.5.2 3 .5 4.4.8 1.5.4 2.9.8 4.2 1.5.6.4 1.2.8 1.8 1.3.6.5 1.1 1.1 1.5 1.7.8 1.2 1.3 2.7 1.4 4.1-1.3-.7-2.6-1.3-4-1.9.3-.2.6-.4.8-.7.5-.6 1.2-1.7.7-2.4-.2-.3-.6-.4-.8-.1-.2.2-.3.5-.4.8s-.3.6-.5.9c-.3.4-.8.7-1.2 1h-.1c-.2-.1-.3-.1-.5-.2.2-.2.4-.5.5-.8.2-.4.4-.8.5-1.3.1-.6 0-.9-.1-1.5-.1-.4-.8-.5-.9 0-.2 1.2-.6 2.2-1.3 3.2l-.3-.1-.5-.1h-1.2c.2-.9 0-2-.8-2.6-.3-.2-.6 0-.6.3.1.9.2 1.6 0 2.4-.6.1-1.2.2-1.7.2-2.2.4-4.3.9-6.3 1.7-1.2.4-2.3 1.2-3.3 2-.2.2-.5.3-.7.5-.1-.8-.2-2.2-.1-3.5zm20 7.3c-.4 1.1-.9 2.2-1.7 3.2-.7.9-1.8 1.6-2.9 1.9-1.1.4-2.3.7-3.5.8s-2.4.2-3.7.1c-.6-.1-1.2-.1-1.8-.3-.6-.1-1.2-.3-1.7-.6-1-.7-1.6-1.8-2.2-2.8-.6-1.1-1-2.2-1.3-3.4-.1-.6-.2-1.1-.2-1.7 1.2-.6 2.4-1.1 3.6-1.3 2.1-.4 4.2-.8 6.2-1.2 1-.2 2.1-.3 3.1-.4.2 0 .5 0 .7-.1h.7c.5.1 1 .1 1.5.2 1.4.2 2.9.5 4.4.7-.2 1.7-.6 3.4-1.2 4.9z" fill="#63543e" stroke-width="none" opacity="1" stroke="none"></path><path id="SvgjsPath13613" d="M72.3 100.1c-.9.8-1.4 1.9-1.5 3.1 0 .2.2.3.3.1.6-1 1.2-1.9 1.9-2.8.2-.3-.4-.7-.7-.4zm.8 1.1c-.5 1-1.2 2.3-1 3.5 0 .3.4.5.6.2.5-1 .7-2.2 1.1-3.2.2-.5-.5-.9-.7-.5z" fill="#f7c1aa" stroke-width="none" opacity="1" stroke="none"></path></g></g></g><g id="svga-group-eyes-right-move" transform="matrix(1,0,0,1,0,0)"><g id="svga-group-eyes-right" transform="matrix(1,0,0,1,0,0)"><g id="svga-group-eyesback-right"><path id="SvgjsPath13603" d="M119.8 77.2c7.5 0 13.5 5.8 13.5 13s-6 13-13.5 13-13.5-5.8-13.5-13 6-13 13.5-13z" fill="#ffffff" stroke-width="none" opacity="1"></path></g><g id="svga-group-eyesiriswrapper-right" transform="matrix(1,0,0,1,0,0)"><g id="svga-group-eyesiriscontrol-right" transform="matrix(1,0,0,1,0,0)"><g id="svga-group-eyesiris-right" transform="matrix(1,0,0,1,0,0)"><path id="SvgjsPath12980" d="M119.8 85.5c2.6 0 4.7 2.1 4.7 4.7s-2.1 4.7-4.7 4.7-4.7-2.1-4.7-4.7 2.1-4.7 4.7-4.7z" fill="#8691ba" stroke-width="none" opacity="1" stroke="none"></path><path id="SvgjsPath12981" d="M119.8 85.8c2.4 0 4.4 2 4.4 4.4s-2 4.4-4.4 4.4-4.4-2-4.4-4.4 1.9-4.4 4.4-4.4m0-.5c-2.7 0-4.9 2.2-4.9 4.9s2.2 4.9 4.9 4.9 4.9-2.2 4.9-4.9-2.2-4.9-4.9-4.9z" fill="#51619b" stroke-width="none" opacity="1" stroke="none"></path><path id="SvgjsPath12982" d="M117.3 91.5c0 1.1.4 2.2 1.2 2.9.4.1.8.2 1.3.2 2.4 0 4.4-2 4.4-4.4 0-.9-.3-1.8-.7-2.4-.6-.3-1.2-.5-1.9-.5-2.4 0-4.3 1.9-4.3 4.2z" fill="#a5adc9" stroke-width="none" opacity="1" stroke="none"></path><path id="SvgjsPath12983" d="M119.8 87.8c1.3 0 2.4 1.1 2.4 2.4s-1.1 2.4-2.4 2.4-2.4-1.1-2.4-2.4 1.1-2.4 2.4-2.4z" fill="#000000" stroke-width="none" opacity="1"></path><path id="SvgjsPath12984" d="M118.7 87.8c.5 0 .8.4.8.8s-.4.8-.8.8-.8-.4-.8-.8.4-.8.8-.8zm2.8 3.8c.2 0 .3.1.3.3s-.1.3-.3.3-.3-.1-.3-.3.1-.3.3-.3z" fill="#ffffff" stroke-width="none" opacity="1"></path><path id="SvgjsPath12985" d="M119.8 94.7c.2 0 .4 0 .7-.1-.2 0-.3-.2-.3-.3-.1.2-.3.3-.4.4-.2 0-.4-.2-.5-.3-.1.2-.3.3-.5.2-.2-.1-.3-.2-.3-.4-.1.1-.4.2-.5.1s-.3-.3-.3-.4c-.2.1-.4.1-.6 0s-.2-.4-.1-.6c-.2.1-.4.1-.6 0-.2-.2-.2-.4 0-.6-.2 0-.4-.1-.6-.2.8 1.2 2.3 2.2 4 2.2zm-4-2.6s0-.1 0 0c-.1-.1 0 0 0 0zm7.7.6c-.1.1-.3.2-.4.1.1.4-.3.7-.7.7.1.2 0 .4-.2.5s-.4.1-.5 0c0 .2-.1.4-.3.4s-.4 0-.5-.2c0 .2-.1.3-.2.4 1.2-.3 2.2-1 2.8-1.9zm-1.6-6.2c.2-.1.5.2.4.4.3-.1.7.2.5.5.1 0 .3 0 .4.2.1.1 0 .3-.1.4.2 0 .4.1.5.3.1.2.1.4-.1.6.2 0 .4.1.4.3s0 .4-.2.5c.2.1.3.2.3.4s-.1.4-.3.4c.2.1.3.3.2.5s-.2.3-.4.4c.2.2.1.7-.2.7.1.1.1.3.1.4.4-.7.6-1.4.6-2.3 0-1.8-1-3.3-2.5-4 .3.1.4.2.4.3zm-.5-.3c.1-.1.2-.1.3 0-.4-.2-.8-.3-1.3-.4v.1c.3-.1.7.1 1 .3zm-4.8 6.2c.1 0 .2-.1.4-.2.1-.1.3-.1.4-.2v-.1c-.1.1-.3.1-.4.2s-.3.1-.4.3c-.1-.1 0 0 0 0zm-1.1-1.4c.1 0 .2 0 .4-.1.1 0 .3-.1.4-.1v-.1c-.1 0-.3 0-.4.1s-.3.1-.4.2zm.5-2.1c.3.1.7.2 1 .3 0 0 .1 0 0 0-.3-.2-.7-.3-1-.3-.1-.1-.1 0 0 0zm.1-.7c.2.1.4.3.6.4 0 0 .1 0 0-.1l-.6-.3zm3.3 5.8c.1-.3.2-.6.2-.9 0 0-.1-.1-.1 0-.1.2-.1.6-.1.9-.1 0 0 0 0 0zm3-3.5c.3.1.6.1.9.1-.2-.1-.6-.1-.9-.1zm.2-.6h.8v-.1c-.2 0-.5 0-.8.1 0-.1 0 0 0 0zm.2-2.4c-.3.2-.6.4-.8.7.2-.2.5-.4.8-.7zm-2.5-1.1c-.1.2-.1.5-.1.7h.1v-.7zm-2.5.2.3.6h.1c-.2-.2-.3-.4-.4-.6z" fill="#51619b" stroke-width="none" opacity="1" stroke="none"></path></g></g></g><g id="svga-group-eyesfront-right"><path id="SvgjsPath13614" d="M119.8 76.7c-7.8 0-14.1 6.1-14.1 13.6s6.3 13.6 14.1 13.6 14.1-6.1 14.1-13.6-6.3-13.6-14.1-13.6zm5.1 22.6c-1.8.9-10.1.5-12.3-3s-2-10-2-10c6.6-3.8 18.6 1.9 18.8 5 .2 3.1-2.7 7.1-4.5 8z" fill="#ffd0bc" stroke-width="none" opacity="1" stroke="none"></path><path id="SvgjsPath13617" d="M109.5 87.6s5 .5 7.1.6c2.1.1 10.5 2.3 14 3.6 0 0 .3-1.6-.1-3.2s-2.5-5.1-4.2-6.1-8.2-3.4-10.6-2c-2.5 1.5-5.6 4.3-6.2 7.1z" fill="#f7c1aa" stroke-width="none" opacity="1" stroke="none"></path><path id="SvgjsPath13618" d="M127.6 96.9c.7-.9 1.3-1.9 1.7-3 .2-.5.4-1.1.4-1.7V92c.7.2 1.3.3 2 .4-.3-.2-.6-.4-.8-.6.1-.7.2-1.3.1-2 0-.7-.2-1.4-.4-2-.5-1.2-1.2-2.4-2-3.4-.4-.5-.8-1-1.3-1.5-.2-.2-.5-.4-.8-.6-.3-.2-.6-.3-.9-.4-1.2-.5-2.5-1-3.8-1.3-1.3-.3-2.6-.6-3.9-.6-.7 0-1.4.1-2 .4-.6.3-1.1.7-1.7 1.1-1.1.8-2 1.7-2.8 2.7-.7.9-1.4 1.9-1.7 3.1-.4 0-.8.1-1.2.1.7.3 1.4.5 2.1.7 0 1.7.2 3.4.6 5 .3 1.1.6 2.2 1.2 3.2.6 1.1 1.6 1.8 2.7 2.2 2.1.9 4.4 1.2 6.7 1.2h.8c.3 0 .6 0 .8-.1.6-.1 1.2-.1 1.7-.4 1-.5 1.8-1.3 2.5-2.3zm-16.2-12.7c.8-1 1.8-1.8 2.9-2.6.5-.4 1.1-.7 1.6-1 .6-.2 1.2-.3 1.8-.3 1.3 0 2.6.3 3.8.7 1.2.4 2.5.8 3.7 1.3.3.1.6.3.8.4.3.2.5.3.7.6.5.4.9.9 1.3 1.4.8 1 1.4 2.2 1.9 3.3.4 1.1.5 2.2.4 3.4-.1 0-.2-.1-.3-.1-1.2-.7-2.4-1.4-3.7-1.9-1.8-.8-3.7-1.3-5.6-1.8.1-1 .5-1.9.9-2.9.1-.2-.1-.6-.4-.4-1.1.6-1.6 1.8-1.6 3-.7-.1-1.4-.3-2.1-.3h-.3c0-.3-.1-.6-.1-.9 0-.5.1-.9.1-1.4 0-.3-.4-.6-.7-.3-.6.7-.7 1.7-.4 2.5h-.2c-.6 0-1 .1-1.5.1-.2-.3-.4-.7-.6-1.1-.2-.7 0-1.2 0-1.9-.1-.3-.6-.4-.8-.2-.7.7-.6 2.2-.1 3.3-1.1 0-2.2.1-3.3.2.4-1.2 1.1-2.2 1.8-3.1zm12 15.3c-.6.1-1.1.1-1.7.1-1.1 0-2.2-.2-3.3-.4-1.1-.2-2.2-.6-3.2-1.1-1-.5-1.9-1.2-2.4-2.1-.6-.9-.9-2-1.2-3.1-.4-1.6-.7-3.2-.8-4.9 1.2.3 2.4.6 3.6.8.5.1 1.1.1 1.5.2.4.1.9.1 1.4.2.9.2 1.9.4 2.8.6 1.9.4 3.8.9 5.8 1.3 1.1.2 2.2.5 3.3.8v.3c-.1.5-.2 1.1-.4 1.6-.4 1-.9 2.1-1.5 3-.6.9-1.4 1.8-2.3 2.4-.5.2-1.1.3-1.6.3z" fill="#63543e" stroke-width="none" opacity="1" stroke="none"></path><path id="SvgjsPath13619" d="M127.2 100.5c-.4-.5-1.1-.9-1.7-1.2-.3-.2-.7.3-.4.6.9.8 1.4 1.8 2.3 2.6.2.2.6.1.6-.2 0-.3-.1-.6-.2-.8-.2-.5-.4-.8-.6-1zm1.4-.6c-.4-.3-.7-.5-1.2-.7-.4-.1-.5.4-.3.6.3.2.6.5.9.7.3.2.6.5.9.6.1.1.3-.1.3-.2 0-.3-.3-.7-.6-1zm-.7-1.9c-.4-.1-.6.4-.3.6.8.5 1.5 1.3 2.3 1.6.1 0 .2-.1.2-.2-.2-1-1.3-1.6-2.2-2z" fill="#f7c1aa" stroke-width="none" opacity="1" stroke="none"></path></g></g></g><g id="svga-group-facehighlight-single"></g><g id="svga-group-eyebrows-left-move" transform="matrix(1,0,0,1,0,0)"><g id="svga-group-eyebrows-left-rotate" transform="matrix(1,0,0,1,0,0)"><g id="svga-group-eyebrows-left" transform="matrix(1,0,0,1,0,0)"><path id="SvgjsPath13686" d="M64.67 79.76c2.13-1.22 4.29-2.43 6.52-3.32.55-.23 1.11-.42 1.66-.55l.4-.08c.11 0 .2-.01.34 0 .13 0 .26.02.4.04.14.01.28.04.42.07 1.15.2 2.32.52 3.48.86 1.17.34 2.32.75 3.47 1.15 1.15.4 2.32.76 3.51 1.05 1.19.29 2.38.56 3.6.77 1.21.22 2.43.41 3.69.49l.07-.22c-1.07-.71-2.19-1.28-3.31-1.81-1.13-.54-2.28-1-3.44-1.43-1.16-.42-2.35-.77-3.56-1.04-1.21-.26-2.42-.5-3.64-.75-1.22-.24-2.44-.47-3.72-.59l-.49-.03c-.16-.01-.33-.01-.51 0-.17 0-.38.03-.57.07l-.49.15c-.63.22-1.21.49-1.76.79-1.11.6-2.16 1.27-3.19 1.97a50.2 50.2 0 0 0-3 2.2l.12.21z" fill="#b79675" stroke-width="none" opacity="1" stroke="none"></path></g></g></g><g id="svga-group-eyebrows-right-move" transform="matrix(1,0,0,1,0,0)"><g id="svga-group-eyebrows-right-rotate" transform="matrix(1,0,0,1,0,0)"><g id="svga-group-eyebrows-right" transform="matrix(1,0,0,1,0,0)"><path id="SvgjsPath13687" d="M134.94 78.92c-2.06-.91-4.15-1.81-6.28-2.42-.53-.16-1.06-.28-1.57-.35l-.37-.04c-.1.01-.19.01-.31.03-.11.01-.24.04-.37.07-.12.02-.25.06-.38.09-1.04.27-2.1.64-3.14 1.03-1.05.39-2.08.84-3.11 1.29-1.03.45-2.08.85-3.15 1.2-1.07.35-2.15.68-3.25.96-1.1.29-2.21.55-3.36.72l-.08-.19c.93-.71 1.91-1.3 2.91-1.86 1-.56 2.02-1.06 3.05-1.53 1.04-.46 2.1-.86 3.19-1.19 1.09-.33 2.19-.63 3.29-.94 1.1-.31 2.21-.61 3.38-.81.15-.02.29-.05.45-.06.15-.02.31-.03.47-.04.15-.01.35 0 .53.01l.46.09c.6.15 1.15.34 1.69.56 1.07.44 2.09.95 3.1 1.49 1 .54 1.98 1.11 2.95 1.71l-.1.18z" fill="#b79675" stroke-width="none" opacity="1" stroke="none"></path></g></g></g><g id="svga-group-nose-single-move" transform="matrix(1,0,0,1,0,1)"><g id="svga-group-nose-single" transform="matrix(0.8499995000000001,0,0,0.8499995000000001,15.00360912441252,16.068748058469765)"><path id="SvgjsPath12387" d="M97.86 101.45s-4.22.78-5.78 2.4-2.08 5 .13 6.5c2.21 1.49 2.04.6 4.03-.39.26-.13.65-.71 1.56.71.91 1.43 1.95 2.27 2.73 1.62.78-.65 1.62-2.73 2.34-2.79.71-.06 2.21 1.69 2.79 1.88.58.19 2.92-.91 3.38-2.4s.39-4.03-1.95-6.04-7.35-1.49-9.23-1.49z" fill="#ffd9c9" stroke-width="none" opacity="1" stroke="none"></path><path id="SvgjsPath12388" d="M97.86 101.45c-1.05.22-2.09.5-3.09.88-.5.19-.99.41-1.46.67-.46.27-.91.57-1.26.97-.71.8-1.09 1.85-1.18 2.89-.1 1.04.18 2.13.89 2.86.17.19.38.33.58.49.22.14.45.28.68.4.23.11.46.23.69.27.23.05.43.03.63-.07.41-.21.85-.59 1.33-.86l.36-.21c.03-.01.07-.04.08-.05l.06-.04c.06-.04.12-.09.21-.13.16-.1.43-.12.62-.05.2.06.33.17.45.27.23.21.41.44.57.68.16.23.29.43.45.64.31.4.67.78 1.06.99.19.11.38.14.53.1.08-.01.15-.06.22-.11.08-.06.16-.14.23-.24.31-.37.59-.84.88-1.29.15-.23.3-.46.48-.68.09-.11.19-.23.3-.34.06-.06.13-.11.19-.16.08-.05.16-.1.27-.14.23-.09.47-.02.63.03.08.03.15.07.23.1l.2.12c.25.16.47.34.68.51.42.34.81.74 1.2 1.02.09.06.19.12.21.11.02.01.08 0 .13 0l.16-.03c.23-.05.46-.15.69-.25.45-.22.9-.49 1.26-.83.37-.34.67-.73.8-1.2.29-.98.26-2.06-.04-3.05-.3-1-.92-1.89-1.69-2.61-.77-.72-1.8-1.12-2.83-1.36-1.05-.23-2.12-.32-3.19-.35-1.06-.02-2.14.04-3.21.05zm0 0c2.14-.06 4.3-.2 6.43.2 1.05.22 2.12.56 2.96 1.29.83.71 1.52 1.61 1.88 2.66.37 1.04.45 2.2.18 3.3-.06.27-.19.57-.34.81-.16.25-.34.47-.55.67-.41.4-.88.73-1.38.98-.26.12-.52.24-.81.31-.15.03-.3.07-.51.05-.25-.02-.38-.14-.52-.21-.49-.34-.87-.7-1.28-1.03-.2-.16-.41-.32-.61-.45l-.15-.09-.14-.06c-.09-.02-.14-.04-.16-.02-.02 0-.05.03-.09.05-.04.03-.07.06-.11.1-.08.08-.16.17-.23.26-.15.2-.3.42-.44.64-.29.44-.57.91-.95 1.36-.1.11-.2.22-.34.33-.14.1-.31.2-.49.24-.38.09-.75-.02-1.02-.17-.56-.31-.92-.76-1.26-1.21-.17-.22-.32-.47-.46-.69-.13-.22-.29-.42-.45-.57a.78.78 0 0 0-.22-.15c-.06-.02-.09-.03-.16.01a.75.75 0 0 0-.14.08c-.03.02-.06.04-.11.07l-.1.05c-.11.06-.23.11-.35.18-.23.12-.45.26-.68.4-.23.14-.45.3-.74.42-.28.13-.64.15-.94.07-.3-.07-.55-.22-.79-.35-.24-.14-.47-.29-.69-.45-.22-.18-.45-.35-.63-.57-.76-.86-1-2.05-.85-3.13.14-1.08.59-2.13 1.33-2.93.77-.79 1.79-1.22 2.79-1.59 1.02-.37 2.07-.65 3.12-.86z" fill="#d17f5b" stroke-width="none" opacity="1" stroke="none"></path></g></g><g id="svga-group-hair-front" transform="matrix(0.9599997000000001,0,0,0.9997997000000002,3.946029350857529,0.014408921174421607)"><path id="SvgjsPath15373" d="M103 30.3s-8.4-2.1-19.6 1.5c0 0-16.3 7.2-22.9 18.9s-11 21.4-11.9 34.4c-.9 13-2.2 30.6-1.8 42.2 0 0 3.8 49.9 5.6 58.2l8.1-1.3s-5.7-15.1-7-26.2c0 0 7.8 22 11.8 26.1l4.3-.6s-6.4-16.4-7.8-29.1c0 0 9.3 19 12 24l8.1.3s-9.7-19.8-13.3-32.1c0 0 5.8 13 8.4 17.2 0 0-9.4-41.6-10.4-48.6s-4.8-33.8-1.8-42.6c0 0 .7 11.7 1.8 16.5l3.3-8.8s-.7-12.1-.3-15.4c0 0 1 10.4 1.6 13 0 0 6.1-2.7 13-2.6 0 0-1-5.6-1.1-9 0 0 1.6 6 2.8 9.1l4.1.7s-3-12-2.8-16.1c0 0 4.7 14.3 8.3 19.7 0 0-2-8.7-2.3-14.5l5 15.3s5.3-18.1 6-25.1c0 0-1.1 20.5-2.1 24.8 0 0 4.4-10.7 5-13.6l-1 13.1 6.6-.4s4.4-14 4.6-19.8c0 0 2.1 17.5.7 23.2 0 0 2.7-12 2.6-20 0 0 1.7 5 2.6 9.3l1.4-8s4.1 7.6 4.1 18.4c0 0 1.9-9.7 1.6-20.1 0 0 4.9 14.5 5 20.7s-.1 7.6-.1 7.6l2.9-9.4s-1.7 26.2-2.9 41.2-6 44.8-6 44.8l4.1-8.3-6.3 23.7 4.8 1.9 7.6-13.3-5.7 14.7s11.1-14.8 13.3-21.2c0 0-2.7 16.8-4.1 21 0 0 7-2.5 8.1-5.3.3-.7 3.4-19.1 3.4-19.1l-1.4 20.4s4-9.8 5-14.5c1-4.7-.3-23.1-.3-23.1s2.7 13.1 4.9 18.4c0 0-4.1-23.2-4.6-26.1-.4-2.9-3.1-27.2-3.7-30.7-.6-3.4-2.3-22-4.3-29.8s-3.9-18-10-27.4-12.1-14.4-18.2-17.2-15.9-2.6-18.8-1z" fill="#ddbc9b" stroke-width="none" opacity="1"></path><path id="SvgjsPath15374" d="m94.9 75.3-.3-2.2-.3-2.2c-.3-3-.5-5.9-.6-8.9-.1-3 .1-6 .3-8.9.2-3 .7-5.9 1.2-8.9-.9 2.8-1.5 5.8-1.9 8.8-.4 3-.6 6-.6 9 .1 3 .3 6 .8 9l.4 2.2.5 2.2c.4 1.4.8 2.9 1.3 4.3-.1-.7-.3-1.5-.4-2.2l-.4-2.2zm-7-13.1c-.1-2.3-.1-4.6.1-6.9l.1-1.7.2-1.7.2-1.7c.1-.6.2-1.2.3-1.7-.4 1.1-.7 2.2-1 3.4l-.3 1.7-.3 1.7c-.3 2.3-.4 4.7-.3 7 .1 2.3.4 4.7.9 7S89 73.8 90 76c-.6-2.3-1.1-4.5-1.4-6.8-.4-2.4-.7-4.7-.7-7zm-5.7.8c0 4.1.6 8.3 2 12.2-.6-4.1-1-8.1-1-12.2s.4-8.1 1.1-12.2c-1.4 3.9-2.1 8.1-2.1 12.2zm.5-12.5c-1.3 3.8-2 7.7-2.2 11.7-.2 4 0 8 .9 11.8-.1-4-.1-7.9.1-11.8.2-3.9.7-7.8 1.2-11.7zm-4.1 1.8c-.5 2.5-.8 5.1-1.1 7.7-.2 2.6-.2 5.2-.1 7.8.1 2.6.4 5.2.9 7.7-.1-2.6-.2-5.2-.2-7.7 0-2.6.1-5.1.3-7.7.2-2.6.5-5.1.8-7.7.2-1.3.4-2.5.6-3.8l.3-1.9c.1-.6.2-1.3.4-1.9-.4 1.2-.8 2.5-1.2 3.7-.2 1.2-.5 2.5-.7 3.8zm-3.9 4.3L75 55l.4-1.6.4-1.6c.2-.5.3-1.1.5-1.6-.5 1-1 2-1.4 3l-.6 1.6-.5 1.6c-.6 2.2-1 4.4-1.2 6.7-.2 2.2-.1 4.5.1 6.8.3 2.2.7 4.4 1.5 6.6-.3-2.2-.6-4.4-.7-6.6-.1-2.2-.1-4.4.1-6.6.3-2.3.6-4.5 1.1-6.7zm-3.6-1.8-.6 1.9c-.7 2.5-1.2 5.1-1.4 7.7-.3 2.6-.3 5.2-.2 7.9.2 2.6.5 5.2 1.1 7.8-.2-2.6-.4-5.2-.4-7.8 0-2.6.1-5.2.4-7.7.3-2.6.7-5.1 1.2-7.7l.4-1.9.5-1.9.5-1.9c.2-.6.4-1.2.6-1.9-.6 1.2-1.1 2.4-1.5 3.6l-.6 1.9zm-4.4 8.7.4-2.2.5-2.2.5-2.2c.2-.7.4-1.4.6-2.2-.3.7-.6 1.4-.8 2.1l-.8 2.2-.6 2.2-.5 2.1v.1c-2.3 9.1-3.3 18.6-3.1 28 .1 5.2.6 10.4 1.4 15.6.7 4.3 1.7 8.5 2.9 12.7-.6-1.1-1.2-2.1-1.8-3.2l-3.1-5.4 2.8 5.6c.9 1.9 1.9 3.7 2.8 5.6l1.3 2.5-.8-2.7c-1.4-5-2.5-10.1-3.3-15.2-.8-5.1-1.2-10.3-1.4-15.4-.1-6.9.3-13.7 1.2-20.5 0 .4-.1.8-.1 1.2-.1 3-.1 6 .3 9 .3 3 .9 5.9 1.8 8.8-.5-2.9-.9-5.9-1.1-8.9-.2-3-.2-5.9-.1-8.9.2-2.9.6-5.8 1-8.7zm35.5-26c.6 3.7 1 7.3 1.3 11 .3 3.7.4 7.4.3 11 0 3.7-.3 7.4-.6 11l-.3 2.8-.4 2.7-.4 2.7c-.2.9-.3 1.8-.5 2.7.5-1.8.9-3.6 1.4-5.4l.5-2.7.4-2.8c.5-3.7.8-7.4.9-11.1 0-3.7-.1-7.5-.6-11.1-.4-3.5-1-7.2-2-10.8zm5.6 6.7c.5 4 .9 8 1.2 12 .3 4 .3 8 .3 12.1.8-4 .9-8.1.7-12.2-.3-4-1-8.1-2.2-11.9zm8.4 9.1c-1-3.2-2.2-6.2-3.8-9.2 1.2 3.1 2.2 6.2 3 9.4.8 3.2 1.5 6.4 1.9 9.6.5 3.2.7 6.5.8 9.8v2.5l-.1 2.5-.1 2.5c-.1.8-.1 1.6-.2 2.5.2-.8.3-1.6.5-2.4l.3-2.4.2-2.5.1-2.5c.1-3.3-.1-6.6-.5-9.9-.4-3.5-1.1-6.7-2.1-9.9zm6.7 11.9c-.2-2.2-.6-4.5-1.1-6.7-.5-2.2-1.1-4.3-1.9-6.5-.8-2.1-1.7-4.2-2.8-6.1.7 2.1 1.4 4.2 2 6.4.6 2.1 1.2 4.3 1.7 6.4.5 2.2.9 4.3 1.3 6.5.2 1.1.3 2.2.5 3.3.2 1.1.3 2.2.4 3.3.1-1.1.1-2.2.1-3.4 0-1-.1-2.1-.2-3.2zm5.2 7.7.1 2.4v4.8c0 .8-.1 1.6-.1 2.4.1-.8.2-1.6.4-2.4l.2-2.4.1-2.5.1-2.5c0-3.3-.3-6.6-.8-9.8-.5-3.2-1.2-6.5-2.2-9.6-1-3.1-2.2-6.2-3.7-9.1 1.1 3.1 2.1 6.2 2.9 9.3.8 3.2 1.5 6.3 2 9.5.6 3.5.9 6.7 1 9.9zm.1-20.6c.1.6.2 1.2.3 1.9l.3 1.9c.2 1.2.4 2.5.5 3.7.2 2.5.4 5 .4 7.5s-.1 5-.3 7.5c-.2 2.5-.5 5-.9 7.4.8-2.4 1.3-4.9 1.7-7.4.4-2.5.5-5 .5-7.6 0-2.5-.2-5.1-.6-7.5-.2-1.2-.5-2.5-.8-3.7-.3-1.3-.7-2.5-1.1-3.7zm6 14.3c-.5-2.7-1.1-5.4-2-8.1-.8-2.6-1.8-5.2-2.9-7.7.8 2.6 1.5 5.3 2.2 7.9.6 2.7 1.2 5.3 1.7 8s.9 5.4 1.2 8.1c.2 1.4.3 2.7.4 4.1l.2 2.1c0 .7.1 1.4.1 2.1.1-1.4.1-2.8.2-4.1 0-1.4-.1-2.8-.1-4.1-.1-2.9-.5-5.6-1-8.3zm1 23.1c1-2.2 1.8-4.5 2.2-6.8 0 2.9 0 5.7-.1 8.6-.1 5.6-.5 11.1-1.1 16.7l-.5 4.2-.6 4.2-.6 4.1-.2 1.1-.9 3.3c.1-.2.3-.5.4-.8l-.1.5.1-.6c1-1.9 1.8-3.8 2.6-5.7.8-2.3 1.6-4.6 2.1-7-1.2 2.1-2.2 4.3-3 6.6-.2.6-.4 1.1-.6 1.7l.7-3.2.7-4.1.6-4.2c.8-5.6 1.2-11.2 1.4-16.8.1-4.6 0-9.2-.2-13.8.1-1.9.1-3.8-.2-5.7-.1.4-.1.8-.1 1.2-.4-5.1-1.1-10.1-2.1-15.1.7 5.5 1.2 11.1 1.5 16.7 0 .9.1 1.8.1 2.7-.1 1.2-.3 2.3-.5 3.4-.4 2.9-1 5.8-1.6 8.8zM78.7 33.8c-7.1 3.5-13 9-17.6 15.3-4.6 6.4-7.9 13.7-10 21.2-2.2 7.6-3.3 15.4-3.8 23.2-.5 7.8-.5 15.7-.2 23.5.3 7.8 1 15.6 2.3 23.3 1.3 7.7 3.1 15.4 5.8 22.7 2.7 7.4 6.1 14.4 10.3 21-4.1-6.6-7.4-13.8-9.8-21.2-2.5-7.4-4.3-15-5.5-22.7-2.3-15.4-2.7-31.1-1.9-46.6.5-7.8 1.5-15.5 3.7-23 2.1-7.5 5.3-14.6 9.8-21 4.5-6.3 10.3-11.8 17.2-15.3 6.8-3.6 14.8-5.4 22.6-4.5-7.9-1-15.9.6-22.9 4.1zM65.6 161.9l-2.9-7.4-2.5-7.6c-3-10.2-4.9-20.7-5.5-31.2-.7-10.6-.2-21.2 1.5-31.7C58 73.5 60.9 63.2 65 53.4l-3.1 7.4-2.6 7.6-2.1 7.6-1.6 7.8c-1.9 10.5-2.4 21.2-1.8 31.9.2 3.2.5 6.4 1 9.6l-.1 3.4v3.7l.1 3.7.2 3.7c.4 4.9 1.1 9.9 2.1 14.7 1.1 4.9 2.3 9.6 4 14.3 1.6 4.7 3.5 9.3 5.8 13.7-1.9-4.6-3.6-9.2-5.1-13.9-1.5-4.7-2.8-9.5-3.7-14.3-1-4.8-1.8-9.7-2.3-14.6l-.4-3.7-.3-3.7-.2-3.7-.1-3.2c1 7.3 2.6 14.6 4.8 21.6l2.6 7.6 3 7.4 3.5 7.2 4 6.9-3.8-7-3.3-7.2zm12 7.7-1.9-4.5-1.8-4.6c-2.3-6.1-4.4-12.4-6.1-18.7-1.8-6.3-3.2-12.8-4.3-19.2-1.1-6.5-1.9-13-2.5-19.6.1 6.6.7 13.2 1.7 19.7s2.4 13 4.1 19.4c1.8 6.4 3.9 12.6 6.4 18.7l1.9 4.6 2.1 4.5 2.2 4.4 2.4 4.3-2.1-4.5-2.1-4.5zM62.8 163c.8 3.6 1.8 7 2.9 10.4 1.2 3.4 2.4 6.8 3.9 10.1-.8-3.6-1.8-7-2.9-10.4-1.2-3.4-2.4-6.8-3.9-10.1zm-13.1 1.3c-.4-3.5-.8-7.1-1.2-10.6l-1-10.6v5.4c.1 1.8.2 3.6.2 5.4.2 3.6.5 7.1.9 10.7.4 3.6.9 7.1 1.5 10.6s1.3 7 2.2 10.5L51 174.9c-.5-3.5-.9-7-1.3-10.6zM149.6 90c-.3-3.7-.8-7.3-1.4-10.9-1.2-7.2-3.2-14.4-6.4-21S134 45.4 128.1 41c-5.8-4.4-13-7.2-20.4-7.2 7.3.1 14.4 3.1 20.1 7.6 2.9 2.2 5.5 4.8 7.7 7.7 2.2 2.9 4.1 6 5.6 9.3 3.1 6.6 5 13.7 6.2 20.9.6 3.6 1.1 7.2 1.4 10.8.4 3.6.6 7.3.7 10.9.6 14.6-.6 29.2-3.3 43.6-1.4 7.2-3.1 14.3-5.3 21.2-2.1 7-4.7 13.9-7.6 20.6 3.1-6.6 5.8-13.4 8.1-20.4 2.3-7 4.2-14.1 5.6-21.2 2.9-14.4 4.1-29.1 3.6-43.7-.3-3.8-.5-7.5-.9-11.1zm-.9 51.8-.2 3c-.1 2-.3 3.9-.5 5.9-.4 3.9-.8 7.9-1.3 11.8-.5 3.9-1.1 7.8-1.8 11.7-.7 3.9-1.5 7.8-2.3 11.6 1.2-3.8 2.2-7.6 3-11.5.9-3.9 1.5-7.8 2.1-11.7.5-3.9.9-7.9 1.1-11.9.1-2 .1-4 .2-5.9 0-2 0-4-.1-5.9-.1.9-.2 1.9-.2 2.9zm-9.4-12.4c1.2-9 2.1-18.1 2.5-27.2s.4-18.2 0-27.3c.1 9.1-.2 18.2-.7 27.3s-1.5 18.1-2.8 27.1c-1.2 9-2.9 17.9-4.8 26.8l-1.5 6.6-1.6 6.6-1.7 6.6-1.9 6.6 2.1-6.5 2-6.5 1.8-6.6 1.6-6.6c2.1-8.9 3.7-17.9 5-26.9zm-1.5 29.5c-1.1 4.1-2.4 8.2-3.8 12.2 1.8-3.9 3.3-7.9 4.5-12 1.3-4.1 2.2-8.3 3-12.5.7-4.2 1.2-8.5 1.4-12.8l.1-3.2v-3.2l-.1-3.2c-.1-1.1-.1-2.1-.2-3.2 0 1.1-.1 2.1-.1 3.2l-.1 3.2-.2 3.2-.2 3.2c-.4 4.2-.9 8.5-1.7 12.6-.5 4.2-1.5 8.4-2.6 12.5zm-7.4-2.5-.6 5.1c-.1 1.7-.3 3.4-.4 5.1l3.5-20.1 3.6-20c-1 3.3-1.8 6.6-2.5 9.9-.8 3.3-1.4 6.6-2 10-.6 3.3-1.2 6.6-1.6 10zm29.4-9.8c-.8-5.2-1.5-10.5-2.2-15.7-.7-5.2-1.4-10.5-2-15.8l-.9-8c-.4-4.8-.9-9.6-1.5-14.4-1-7.3-2.4-14.6-4.1-21.9-.9-3.6-1.9-7.2-3.1-10.7-1.2-3.5-2.7-7-4.5-10.2-1.8-3.3-3.9-6.4-6.4-9.1-2.5-2.8-5.4-5.2-8.5-7.2-3.2-2-6.7-3.4-10.3-4.2-3.6-.8-7.4-.9-11-.1 3.7-.6 7.4-.5 11 .4 3.6.9 7 2.4 10.1 4.4 3.1 2 5.9 4.4 8.3 7.2 2.4 2.8 4.5 5.8 6.2 9.1 3.4 6.5 5.7 13.6 7.4 20.8 1.6 7.2 3.1 14.4 4 21.8 1 7.3 1.7 14.7 2.1 22.1.4 7.4.5 14.8.5 22.2 0 7.4-.3 14.8-.7 22.2-.4 7.4-.9 14.8-1.5 22.1.8-7.4 1.5-14.7 2-22.1.5-7.4.8-14.8 1-22.2.1-5.1.1-10.2-.1-15.3.3 3.1.7 6.1 1.1 9.2.7 5.2 1.5 10.5 2.4 15.7.5 2.6.9 5.2 1.5 7.8.5 2.6 1.1 5.2 1.7 7.8l-2.5-15.9z" fill="#cea57c" stroke-width="none" opacity="1"></path></g><g id="svga-group-glasses-single-move" transform="matrix(1,0,0,1,0,0)"><g id="svga-group-glasses-single" transform="matrix(1.1500005000000004,0,0,1.1500005000000004,-15.062622497087517,-13.848529056507147)"><path id="SvgjsPath14448" d="M79.1 75.8c9.4 0 17 7.3 17 16.4s-7.6 16.4-17 16.4-17-7.3-17-16.4 7.6-16.4 17-16.4z" fill="url(#SvgjsLinearGradient14449)" opacity="1"></path><path id="SvgjsPath14456" d="M121.5 75.8c9.4 0 17 7.3 17 16.4s-7.6 16.4-17 16.4-17-7.3-17-16.4 7.6-16.4 17-16.4z" fill="url(#SvgjsLinearGradient14457)" opacity="1"></path><path id="SvgjsPath14464" d="M142.6 88.5c-2.3-.1-3.8-1.8-4.6-2.9-2.7-6.2-9-10.6-16.4-10.6-8 0-14.7 5.1-17 12.1-.2 0-.5 0-.9-.1-1.3-.3-2.2-1.1-3.3-1.1-1.1 0-2 .8-3.3 1.1-.4.1-.7.1-.9.1-2.2-7-9-12.1-17-12.1-7.4 0-13.7 4.4-16.4 10.6-.8 1.1-2.3 2.8-4.6 2.9 0 0-.3 2.5-.1 4.8 0 0 2.7.4 3.8 2.9 1.8 7.6 8.9 13.3 17.3 13.3 9.5 0 17.2-7.2 17.7-16.3.8-2.3 2-3.3 2.7-3.7.5-.2 1-.2 1.5 0 .8.4 2 1.4 2.8 3.7.5 9.1 8.2 16.3 17.7 16.3 8.4 0 15.4-5.7 17.3-13.3 1.1-2.4 3.8-2.9 3.8-2.9.2-2.2-.1-4.8-.1-4.8zm-61.4 19.2C70.6 109 61.7 100.4 63 90.2c.9-7 6.7-12.6 13.9-13.5 10.6-1.3 19.5 7.3 18.2 17.6-.9 6.9-6.7 12.6-13.9 13.4zm42.4 0c-10.6 1.3-19.5-7.3-18.2-17.6.9-7 6.7-12.6 13.9-13.5 10.6-1.3 19.5 7.3 18.2 17.6-.8 7-6.7 12.7-13.9 13.5z" fill="#777777" stroke-width="none" opacity="1"></path><path id="SvgjsPath14465" d="M142.8 90.9c0-.4 0-.8-.1-1.2s-.1-.8-.1-1.2c-1-.1-1.9-.4-2.6-.9-.8-.5-1.4-1.2-1.9-2-1.4-3.3-3.8-6.1-6.9-8-3.1-1.9-6.8-2.9-10.4-2.7-3.7.1-7.3 1.4-10.2 3.6-2.9 2.1-5 5.1-6.1 8.4-.6 0-1.3-.2-1.9-.5-.7-.3-1.4-.7-2.2-.7-.8 0-1.5.4-2.2.7-.6.3-1.3.5-1.9.5-1.1-3.3-3.3-6.3-6.1-8.4-2.9-2.2-6.5-3.4-10.1-3.6-3.7-.2-7.3.8-10.4 2.7-3.1 1.9-5.5 4.7-6.9 8-.5.8-1.2 1.4-1.9 2-.8.5-1.7.8-2.6.9H58v.1c-.2 1.6-.2 3.2-.1 4.8v.1h.1c.8.2 1.6.5 2.2 1 .7.5 1.2 1.1 1.5 1.8 1 4 3.5 7.7 6.9 10.1s7.8 3.7 12.1 3.3c4.3-.4 8.4-2.3 11.3-5.3 3-3 4.8-7 5-11.1.3-.8.7-1.6 1.2-2.3.3-.3.6-.7.9-.9.4-.3.7-.5 1.1-.5s.8.2 1.1.5c.3.3.7.6.9.9.5.7.9 1.5 1.2 2.3.2 4.1 2 8.2 5 11.1 3 3 7.1 4.9 11.3 5.2 4.3.4 8.6-.8 12.1-3.3 3.4-2.4 6-6.1 6.9-10.1.3-.7.9-1.4 1.5-1.8.6-.5 1.4-.8 2.2-1h.1c.3-.9.3-1.7.3-2.5zm-.2 2.3c-.8.2-1.6.5-2.2 1-.7.5-1.2 1.2-1.6 1.9-1 4-3.5 7.5-6.9 9.9s-7.7 3.5-11.8 3.1c-4.2-.4-8.1-2.3-11-5.2-2.9-2.9-4.7-6.8-4.9-10.8-.3-.9-.7-1.7-1.3-2.5-.3-.4-.6-.7-1-1s-.8-.6-1.4-.6-1.1.3-1.4.6c-.4.3-.7.6-1 1-.6.8-1 1.6-1.3 2.5-.2 4-2 8-4.9 10.9s-6.9 4.8-11 5.2c-4.2.4-8.4-.7-11.8-3.1s-5.9-5.9-6.9-9.9c-.4-.8-.9-1.4-1.6-1.9-.7-.5-1.4-.8-2.2-1-.2-1.5-.1-3.1.1-4.6.9-.1 1.9-.4 2.6-.9.8-.5 1.4-1.3 2-2 1.4-3.2 3.8-6 6.9-7.9 3-1.9 6.7-2.8 10.3-2.6 3.6.2 7.1 1.4 9.9 3.6 2.8 2.1 5 5.1 6 8.4v.1h.1c.8.1 1.6-.2 2.2-.5.7-.3 1.3-.6 2-.6s1.3.3 2 .6 1.4.6 2.2.5h.2l.1-.2c1.1-3.3 3.2-6.3 6-8.4s6.3-3.4 9.9-3.6 7.2.7 10.3 2.6c3 1.9 5.5 4.6 6.9 7.8.5.8 1.2 1.5 2 2s1.7.9 2.7.9l.1 1.2c0 .4 0 .8.1 1.2-.3.8-.3 1.6-.4 2.3zm-47.2-3.1c-.5-4.2-2.9-8-6.3-10.5C85.7 77 81.2 76 77 76.5c-2.1.3-4.2 1-6 2s-3.4 2.4-4.8 4.1c-1.3 1.6-2.3 3.5-2.9 5.5-.6 2-.7 4.1-.5 6.2.5 4.1 2.9 8 6.3 10.5s7.9 3.5 12.1 3 8.2-2.7 10.8-5.9c1.3-1.6 2.3-3.5 2.9-5.5.3-1 .5-2 .5-3.1.1-.5.1-1 0-1.6 0-.5.1-1 0-1.6zm-3.6 11.5c-1.3 1.6-2.8 3-4.7 4.1-1.8 1-3.8 1.7-5.9 2-4.2.5-8.6-.6-11.8-3.2-3.3-2.5-5.5-6.2-6.1-10.3-.2-2-.2-4.1.3-6 .5-2 1.5-3.8 2.7-5.4 2.5-3.3 6.5-5.4 10.7-5.9 4.2-.4 8.5.7 11.8 3.2s5.6 6.2 6.1 10.2c.4 3.9-.6 8.1-3.1 11.3zm46-11.5c-.5-4.2-2.9-8-6.3-10.5-3.4-2.6-7.9-3.6-12.1-3.1-2.1.3-4.2 1-6 2s-3.4 2.4-4.8 4.1c-1.3 1.6-2.3 3.5-2.9 5.5s-.7 4.1-.5 6.2c.5 4.1 2.9 8 6.3 10.5s7.9 3.5 12.1 3 8.2-2.7 10.8-5.9c1.3-1.6 2.3-3.5 2.9-5.5.3-1 .5-2 .5-3.1.1-.5.1-1 0-1.6.1-.5.1-1 0-1.6zm-3.6 11.5c-1.3 1.6-2.8 3-4.6 4.1-1.8 1-3.8 1.7-5.9 2-4.2.5-8.6-.6-11.8-3.2-3.3-2.5-5.5-6.2-6.1-10.3-.2-2-.2-4.1.3-6 .5-2 1.4-3.8 2.7-5.4 2.5-3.3 6.5-5.4 10.7-5.9 4.2-.4 8.5.7 11.8 3.2s5.6 6.2 6.1 10.2c.4 3.9-.6 8.1-3.2 11.3z" fill="#585858" stroke-width="none" opacity="1"></path></g></g></g></g></g><rect id="svga-credit-rect" width="200" height="15" x="0" y="185" fill="#ecf0f1" opacity="0.5" style="display: none;"></rect><text id="svga-credit-text" font-family="Avenir Next, Roboto, Helvetica, Arial, sans-serif" font-size="10px" text-anchor="start" font-weight="400" size="10px" anchor="start" weight="400" fill="#333333" x="33.40447998046875" y="182.60824704170227" style="display: none;"><tspan id="SvgjsTspan11732" dy="13" x="33.40447998046875">Created on AvatarMaker.com</tspan></text></g></svg>